<svg height="512" viewBox="0 0 74 74" width="512" xmlns="http://www.w3.org/2000/svg"><g id="color_line" data-name="color line"><path d="m24.117 4.725h38.29v54.13h-38.29z" fill="#89c5cd"/><path d="m24.307 4.915v2.97h35.391v51.16h2.899v-54.13z" fill="#6daaad"/><path d="m62.413 70.725h-45.1a5.931 5.931 0 0 1 0-11.862h45.1c-2.897 3.496-2.995 7.748 0 11.862z" fill="#e1e6e9"/><path d="m62.413 71.225h-45.1a6.475 6.475 0 0 1 -4.547-1.884 6.43 6.43 0 0 1 4.547-10.978h45.1a.5.5 0 0 1 .385.819c-2.8 3.385-2.8 7.379.02 11.249a.5.5 0 0 1 -.4.794zm-45.1-11.862a5.431 5.431 0 0 0 0 10.862h44.157c-2.32-3.676-2.341-7.549-.062-10.862z" fill="#323c6b"/><path d="m24.117 4.725v54.14h-6.8a5.939 5.939 0 0 0 -5.94 5.93v-55.14a4.936 4.936 0 0 1 4.94-4.93z" fill="#64798a"/><path d="m11.377 65.3a.5.5 0 0 1 -.5-.5v-55.145a5.441 5.441 0 0 1 5.44-5.43h7.8a.5.5 0 0 1 .5.5v54.14a.5.5 0 0 1 -.5.5h-6.8a5.441 5.441 0 0 0 -5.44 5.43.5.5 0 0 1 -.5.505zm4.94-60.07a4.44 4.44 0 0 0 -4.44 4.43v51.7a6.443 6.443 0 0 1 5.44-2.992h6.3v-53.143z" fill="#323c6b"/><path d="m34.075 36.863h-5.092v-9.816h1.15v8.775h3.943z" fill="#323c6b"/><path d="m40.954 27.046h-1.192l-3.762 9.813h1.273l.981-2.745h4.159l1.04 2.745h1.273zm-2.313 6.028s1.635-4.556 1.682-4.836h.023c.047.3 1.694 4.836 1.694 4.836z" fill="#323c6b"/><path d="m57.308 27.046-2.78 9.813h-1.343s-2.161-7.8-2.185-8.166h-.023c-.023.339-2.208 8.166-2.208 8.166h-1.332l-2.874-9.813h1.262s2.231 7.987 2.255 8.326h.035c.023-.245 2.383-8.326 2.383-8.326h1.1s2.202 7.964 2.241 8.314h.023c.023-.234 2.2-8.314 2.2-8.314z" fill="#323c6b"/><path d="m26.36 67.392-1.879-1.544-1.88 1.544v-4.833h3.759z" fill="#ea6453"/><g fill="#323c6b"><path d="m26.36 67.892a.5.5 0 0 1 -.317-.114l-1.563-1.278-1.562 1.283a.5.5 0 0 1 -.817-.386v-4.838a.5.5 0 0 1 .5-.5h3.76a.5.5 0 0 1 .5.5v4.833a.5.5 0 0 1 -.5.5zm-1.88-2.544a.5.5 0 0 1 .317.114l1.063.873v-3.276h-2.76v3.276l1.063-.873a.5.5 0 0 1 .317-.114z"/><path d="m54.022 63.059h-34.122a.5.5 0 0 1 0-1h34.122a.5.5 0 0 1 0 1z"/><path d="m68.307 74.225h-9.369a.5.5 0 1 1 0-1h8.386l-2.833-3.893a.5.5 0 0 1 .809-.589l3.411 4.688a.5.5 0 0 1 -.4.794z"/><path d="m56.517 74.225h-.594a.5.5 0 1 1 0-1h.594a.5.5 0 0 1 0 1z"/><path d="m8.382 14.559a.5.5 0 0 1 -.5-.5v-.667a.5.5 0 0 1 1 0v.667a.5.5 0 0 1 -.5.5z"/><path d="m8.382 11.309a.5.5 0 0 1 -.5-.5v-1.15a8.445 8.445 0 0 1 7.369-8.359.512.512 0 0 1 .559.433.5.5 0 0 1 -.434.559 7.442 7.442 0 0 0 -6.494 7.367v1.149a.5.5 0 0 1 -.5.501z"/><path d="m62.407 59.355h-38.29a.5.5 0 0 1 -.5-.5v-54.13a.5.5 0 0 1 .5-.5h38.29a.5.5 0 0 1 .5.5v54.13a.5.5 0 0 1 -.5.5zm-37.79-1h37.29v-53.13h-37.29z"/><path d="m43.263 55.813h-10.2a.5.5 0 0 1 0-1h10.2a.5.5 0 0 1 0 1z"/><path d="m30.251 55.813h-.594a.5.5 0 1 1 0-1h.594a.5.5 0 0 1 0 1z"/></g><path d="m43.282 55.913h-10.2a.6.6 0 0 1 0-1.2h10.2a.6.6 0 0 1 0 1.2z" fill="#fff"/><path d="m30.271 55.913h-.594a.6.6 0 0 1 0-1.2h.594a.6.6 0 0 1 0 1.2z" fill="#fff"/></g></svg>