<svg height="512" viewBox="0 0 74 74" width="512" xmlns="http://www.w3.org/2000/svg"><g id="color_line" data-name="color line"><path d="m36.959 15.052s-12.432 7.211-12.432 14.077v4.144h24.863v-4.144c0-6.866-12.431-14.077-12.431-14.077z" fill="#ebf0f3"/><path d="m25.211 36.857h23.376v36.262h-23.376z" fill="#ebf0f3"/><path d="m2.904 40.327h22.307v4.209h-22.307z" fill="#d5d6db"/><path d="m25.211 45.036h-22.311a.5.5 0 0 1 -.5-.5v-4.209a.5.5 0 0 1 .5-.5h22.311a.5.5 0 0 1 .5.5v4.209a.5.5 0 0 1 -.5.5zm-21.807-1h21.307v-3.209h-21.311z" fill="#323c6b"/><path d="m48.586 44.536h20.103v28.583h-20.103z" fill="#ebf0f3"/><path d="m48.586 40.327h22.318v4.209h-22.318z" fill="#d5d6db"/><path d="m70.9 45.036h-22.314a.5.5 0 0 1 -.5-.5v-4.209a.5.5 0 0 1 .5-.5h22.314a.5.5 0 0 1 .5.5v4.209a.5.5 0 0 1 -.5.5zm-21.817-1h21.317v-3.209h-21.314z" fill="#323c6b"/><path d="m36.909 16.115a.5.5 0 0 1 -.5-.5v-8.515a.5.5 0 0 1 1 0v8.515a.5.5 0 0 1 -.5.5z" fill="#323c6b"/><path d="m36.909 7.1h6.988v5.209h-6.988z" fill="#ea6453"/><path d="m43.9 12.809h-6.991a.5.5 0 0 1 -.5-.5v-5.209a.5.5 0 0 1 .5-.5h6.991a.5.5 0 0 1 .5.5v5.209a.5.5 0 0 1 -.5.5zm-6.488-1h5.988v-4.209h-5.991z" fill="#323c6b"/><path d="m31.692 58.828h10.414v14.292h-10.414z" fill="#84879c"/><path d="m42.105 73.619h-10.414a.5.5 0 0 1 -.5-.5v-14.291a.5.5 0 0 1 .5-.5h10.414a.5.5 0 0 1 .5.5v14.291a.5.5 0 0 1 -.5.5zm-9.914-1h9.414v-13.291h-9.414z" fill="#323c6b"/><path d="m5.118 44.536h20.092v28.583h-20.092z" fill="#ebf0f3"/><path d="m25.211 73.619h-20.093a.5.5 0 0 1 -.5-.5v-28.583a.5.5 0 0 1 .5-.5h20.093a.5.5 0 0 1 .5.5v28.583a.5.5 0 0 1 -.5.5zm-19.593-1h19.093v-27.583h-19.093z" fill="#323c6b"/><path d="m9.539 49.009h3.874v4.011h-3.874z" fill="#89c5cd"/><path d="m13.413 53.52h-3.874a.5.5 0 0 1 -.5-.5v-4.011a.5.5 0 0 1 .5-.5h3.874a.5.5 0 0 1 .5.5v4.011a.5.5 0 0 1 -.5.5zm-3.374-1h2.874v-3.011h-2.874z" fill="#323c6b"/><path d="m16.916 49.009h3.874v4.011h-3.874z" fill="#89c5cd"/><path d="m20.79 53.52h-3.873a.5.5 0 0 1 -.5-.5v-4.011a.5.5 0 0 1 .5-.5h3.873a.5.5 0 0 1 .5.5v4.011a.5.5 0 0 1 -.5.5zm-3.374-1h2.874v-3.011h-2.873z" fill="#323c6b"/><path d="m9.539 56.822h3.874v4.011h-3.874z" fill="#89c5cd"/><path d="m13.413 61.333h-3.874a.5.5 0 0 1 -.5-.5v-4.011a.5.5 0 0 1 .5-.5h3.874a.5.5 0 0 1 .5.5v4.011a.5.5 0 0 1 -.5.5zm-3.374-1h2.874v-3.011h-2.874z" fill="#323c6b"/><path d="m16.916 56.822h3.874v4.011h-3.874z" fill="#89c5cd"/><path d="m20.79 61.333h-3.873a.5.5 0 0 1 -.5-.5v-4.011a.5.5 0 0 1 .5-.5h3.873a.5.5 0 0 1 .5.5v4.011a.5.5 0 0 1 -.5.5zm-3.374-1h2.874v-3.011h-2.873z" fill="#323c6b"/><path d="m9.539 64.635h3.874v4.011h-3.874z" fill="#89c5cd"/><path d="m13.413 69.146h-3.874a.5.5 0 0 1 -.5-.5v-4.011a.5.5 0 0 1 .5-.5h3.874a.5.5 0 0 1 .5.5v4.011a.5.5 0 0 1 -.5.5zm-3.374-1h2.874v-3.011h-2.874z" fill="#323c6b"/><path d="m16.916 64.635h3.874v4.011h-3.874z" fill="#89c5cd"/><path d="m20.79 69.146h-3.873a.5.5 0 0 1 -.5-.5v-4.011a.5.5 0 0 1 .5-.5h3.873a.5.5 0 0 1 .5.5v4.011a.5.5 0 0 1 -.5.5zm-3.374-1h2.874v-3.011h-2.873z" fill="#323c6b"/><path d="m53.007 49.009h3.874v4.011h-3.874z" fill="#89c5cd"/><path d="m56.881 53.52h-3.874a.5.5 0 0 1 -.5-.5v-4.011a.5.5 0 0 1 .5-.5h3.874a.5.5 0 0 1 .5.5v4.011a.5.5 0 0 1 -.5.5zm-3.374-1h2.874v-3.011h-2.874z" fill="#323c6b"/><path d="m60.384 49.009h3.874v4.011h-3.874z" fill="#89c5cd"/><path d="m64.258 53.52h-3.874a.5.5 0 0 1 -.5-.5v-4.011a.5.5 0 0 1 .5-.5h3.874a.5.5 0 0 1 .5.5v4.011a.5.5 0 0 1 -.5.5zm-3.374-1h2.874v-3.011h-2.874z" fill="#323c6b"/><path d="m53.007 56.822h3.874v4.011h-3.874z" fill="#89c5cd"/><path d="m56.881 61.333h-3.874a.5.5 0 0 1 -.5-.5v-4.011a.5.5 0 0 1 .5-.5h3.874a.5.5 0 0 1 .5.5v4.011a.5.5 0 0 1 -.5.5zm-3.374-1h2.874v-3.011h-2.874z" fill="#323c6b"/><path d="m60.384 56.822h3.874v4.011h-3.874z" fill="#89c5cd"/><path d="m64.258 61.333h-3.874a.5.5 0 0 1 -.5-.5v-4.011a.5.5 0 0 1 .5-.5h3.874a.5.5 0 0 1 .5.5v4.011a.5.5 0 0 1 -.5.5zm-3.374-1h2.874v-3.011h-2.874z" fill="#323c6b"/><path d="m53.007 64.635h3.874v4.011h-3.874z" fill="#89c5cd"/><path d="m56.881 69.146h-3.874a.5.5 0 0 1 -.5-.5v-4.011a.5.5 0 0 1 .5-.5h3.874a.5.5 0 0 1 .5.5v4.011a.5.5 0 0 1 -.5.5zm-3.374-1h2.874v-3.011h-2.874z" fill="#323c6b"/><path d="m60.384 64.635h3.874v4.011h-3.874z" fill="#89c5cd"/><path d="m64.258 69.146h-3.874a.5.5 0 0 1 -.5-.5v-4.011a.5.5 0 0 1 .5-.5h3.874a.5.5 0 0 1 .5.5v4.011a.5.5 0 0 1 -.5.5zm-3.374-1h2.874v-3.011h-2.874z" fill="#323c6b"/><path d="m30.487 42.131h4.415v4.011h-4.415z" fill="#89c5cd"/><path d="m34.9 46.642h-4.413a.5.5 0 0 1 -.5-.5v-4.011a.5.5 0 0 1 .5-.5h4.413a.5.5 0 0 1 .5.5v4.011a.5.5 0 0 1 -.5.5zm-3.915-1h3.415v-3.011h-3.413z" fill="#323c6b"/><path d="m38.895 42.131h4.415v4.011h-4.415z" fill="#89c5cd"/><path d="m43.31 46.642h-4.41a.5.5 0 0 1 -.5-.5v-4.011a.5.5 0 0 1 .5-.5h4.41a.5.5 0 0 1 .5.5v4.011a.5.5 0 0 1 -.5.5zm-3.915-1h3.415v-3.011h-3.41z" fill="#323c6b"/><path d="m30.487 49.944h4.415v4.011h-4.415z" fill="#89c5cd"/><path d="m34.9 54.455h-4.413a.5.5 0 0 1 -.5-.5v-4.011a.5.5 0 0 1 .5-.5h4.413a.5.5 0 0 1 .5.5v4.011a.5.5 0 0 1 -.5.5zm-3.915-1h3.415v-3.011h-3.413z" fill="#323c6b"/><path d="m38.895 49.944h4.415v4.011h-4.415z" fill="#89c5cd"/><path d="m43.31 54.455h-4.41a.5.5 0 0 1 -.5-.5v-4.011a.5.5 0 0 1 .5-.5h4.41a.5.5 0 0 1 .5.5v4.011a.5.5 0 0 1 -.5.5zm-3.915-1h3.415v-3.011h-3.41z" fill="#323c6b"/><path d="m71.689 61.913a.5.5 0 0 1 -.5-.5v-8.188a.5.5 0 0 1 1 0v8.188a.5.5 0 0 1 -.5.5z" fill="#323c6b"/><path d="m71.689 65.288a.5.5 0 0 1 -.5-.5v-.875a.5.5 0 0 1 1 0v.875a.5.5 0 0 1 -.5.5z" fill="#323c6b"/><path d="m25.211 36.857v.051h20.731v36.211h2.644v-36.262z" fill="#e1e6e9"/><path d="m48.586 44.536v.051h17.459v28.532h2.644v-28.583z" fill="#e1e6e9"/><path d="m36.959 15.052s-.529.308-1.361.85c3.172 2.058 11.148 7.777 11.148 13.278v4.093h2.644v-4.144c0-6.866-12.431-14.077-12.431-14.077z" fill="#e1e6e9"/><g fill="#323c6b"><path d="m23.383 24a.5.5 0 0 1 -.432-.75c.173-.3.354-.6.548-.887a.5.5 0 1 1 .833.553c-.182.275-.353.554-.516.835a.5.5 0 0 1 -.433.249z"/><path d="m25.415 21.175a.5.5 0 0 1 -.379-.826 36.411 36.411 0 0 1 6.785-5.911.5.5 0 0 1 .566.824 35.416 35.416 0 0 0 -6.594 5.738.5.5 0 0 1 -.378.175z"/><path d="m48.586 73.619h-23.375a.5.5 0 0 1 -.5-.5v-36.262a.5.5 0 0 1 .5-.5h23.375a.5.5 0 0 1 .5.5v36.262a.5.5 0 0 1 -.5.5zm-22.875-1h22.375v-35.262h-22.375z"/><path d="m68.689 73.619h-20.1a.5.5 0 0 1 -.5-.5v-28.583a.5.5 0 0 1 .5-.5h20.1a.5.5 0 0 1 .5.5v28.583a.5.5 0 0 1 -.5.5zm-19.6-1h19.1v-27.583h-19.1z"/><path d="m49.39 33.773h-24.863a.5.5 0 0 1 -.5-.5v-4.144c0-7.072 12.163-14.209 12.681-14.509a.5.5 0 0 1 .5 0c.518.3 12.68 7.437 12.68 14.509v4.144a.5.5 0 0 1 -.498.5zm-24.363-1h23.863v-3.644c0-5.973-10.188-12.433-11.931-13.494-1.742 1.06-11.932 7.521-11.932 13.494z"/></g><path d="m23.007 32.648h27.805v4.209h-27.805z" fill="#d5d6db"/><path d="m50.812 37.357h-27.8a.5.5 0 0 1 -.5-.5v-4.209a.5.5 0 0 1 .5-.5h27.8a.5.5 0 0 1 .5.5v4.209a.5.5 0 0 1 -.5.5zm-27.3-1h26.8v-3.209h-26.8z" fill="#323c6b"/><path d="m28.667 69.767a.6.6 0 0 1 -.6-.6v-6.5a.6.6 0 1 1 1.2 0v6.5a.6.6 0 0 1 -.6.6z" fill="#fff"/><path d="m28.667 61.4a.6.6 0 0 1 -.6-.6v-.88a.6.6 0 1 1 1.2 0v.875a.6.6 0 0 1 -.6.605z" fill="#fff"/></g></svg>