<svg height="512" viewBox="0 0 74 74" width="512" xmlns="http://www.w3.org/2000/svg"><g id="color_line" data-name="color line"><path d="m61.75 4.453h-51.75v66.244h38.496l13.254-13.254z" fill="#ebf0f3"/><path d="m58.75 57.25h3v-52.797h-51.75v2.71h48.75z" fill="#e1e6e9"/><path d="m48.496 70.697 13.254-13.254h-13.254z" fill="#d5d6db"/><path d="m48.5 71.2a.494.494 0 0 1 -.191-.038.5.5 0 0 1 -.309-.462v-13.257a.5.5 0 0 1 .5-.5h13.25a.5.5 0 0 1 .354.854l-13.254 13.254a.5.5 0 0 1 -.35.149zm.5-13.257v11.547l11.543-11.547z" fill="#323c6b"/><path d="m15.875 12.417h11.051v11.051h-11.051z" fill="#fe7058"/><path d="m20.442 19.479a.5.5 0 0 1 -.354-.146l-1.007-1.007a.5.5 0 0 1 .707-.707l.653.653 2.571-2.572a.5.5 0 0 1 .707.707l-2.919 2.926a.5.5 0 0 1 -.358.146z" fill="#323c6b"/><path d="m15.875 30.05h11.051v11.051h-11.051z" fill="#89c5cd"/><path d="m24.71 12.42h2.22v11.05h-2.22z" fill="#ea6453"/><path d="m24.71 30.05h2.22v11.05h-2.22z" fill="#80b8bc"/><g fill="#323c6b"><path d="m20.442 37.112a.5.5 0 0 1 -.354-.146l-1.007-1.007a.5.5 0 0 1 .707-.707l.653.653 2.569-2.569a.5.5 0 0 1 .707.707l-2.917 2.923a.5.5 0 0 1 -.358.146z"/><path d="m55.875 15.025h-24a.5.5 0 0 1 0-1h24a.5.5 0 0 1 0 1z"/><path d="m47.364 21.859h-15.489a.5.5 0 0 1 0-1h15.489a.5.5 0 0 1 0 1z"/><path d="m55.875 32.234h-24a.5.5 0 0 1 0-1h24a.5.5 0 0 1 0 1z"/><path d="m47.364 39.068h-15.489a.5.5 0 0 1 0-1h15.489a.5.5 0 0 1 0 1z"/><path d="m35.422 62.5a4.362 4.362 0 0 1 -4.357-4.357.5.5 0 1 1 1 0 3.357 3.357 0 1 0 3.357-3.357 4.357 4.357 0 1 1 4.356-4.357.5.5 0 0 1 -1 0 3.357 3.357 0 1 0 -3.356 3.357 4.357 4.357 0 0 1 0 8.715z"/><path d="m35.422 47.068a.5.5 0 0 1 -.5-.5v-1.068a.5.5 0 0 1 1 0v1.068a.5.5 0 0 1 -.5.5z"/><path d="m35.422 63.566a.5.5 0 0 1 -.5-.5v-1.066a.5.5 0 0 1 1 0v1.068a.5.5 0 0 1 -.5.498z"/><path d="m64.75 41.646a.5.5 0 0 1 -.5-.5v-.771a.5.5 0 0 1 1 0v.771a.5.5 0 0 1 -.5.5z"/><path d="m7 11.57a.5.5 0 0 1 -.5-.5v-.646a.5.5 0 1 1 1 0v.646a.5.5 0 0 1 -.5.5z"/><path d="m7 8.3a.5.5 0 0 1 -.5-.5v-6.347a.5.5 0 0 1 .5-.5h7.583a.5.5 0 0 1 0 1h-7.083v5.847a.5.5 0 0 1 -.5.5z"/><path d="m64.75 38.063a.5.5 0 0 1 -.5-.5v-9.9a.5.5 0 0 1 1 0v9.9a.5.5 0 0 1 -.5.5z"/><path d="m48.5 71.2h-38.5a.5.5 0 0 1 -.5-.5v-66.247a.5.5 0 0 1 .5-.5h51.75a.5.5 0 0 1 .5.5v52.99a.5.5 0 0 1 -.146.354l-13.254 13.254a.5.5 0 0 1 -.35.149zm-38-1h37.789l12.961-12.964v-52.283h-50.75z"/><path d="m26.926 23.968h-11.051a.5.5 0 0 1 -.5-.5v-11.051a.5.5 0 0 1 .5-.5h11.051a.5.5 0 0 1 .5.5v11.051a.5.5 0 0 1 -.5.5zm-10.551-1h10.051v-10.051h-10.051z"/><path d="m26.926 41.6h-11.051a.5.5 0 0 1 -.5-.5v-11.05a.5.5 0 0 1 .5-.5h11.051a.5.5 0 0 1 .5.5v11.05a.5.5 0 0 1 -.5.5zm-10.551-1h10.051v-10.05h-10.051z"/></g><path d="m27.283 66.714a.6.6 0 0 1 -.6.6h-8.5a.6.6 0 0 1 0-1.207h8.5a.6.6 0 0 1 .6.607z" fill="#fff"/><path d="m16.2 66.714a.6.6 0 0 1 -.6.6h-.662a.6.6 0 1 1 0-1.207h.662a.6.6 0 0 1 .6.607z" fill="#fff"/></g></svg>