<svg height="512" viewBox="0 0 74 74" width="512" xmlns="http://www.w3.org/2000/svg"><g id="color_line" data-name="color line"><path d="m45.644 27.8a3.212 3.212 0 0 1 3.356 3.516 3.542 3.542 0 0 1 -3.58 3.709h-25.214a3.542 3.542 0 0 1 -3.58-3.709 3.212 3.212 0 0 1 3.356-3.516z" fill="#f7be56"/><path d="m45.42 35.525h-25.214a4.055 4.055 0 0 1 -4.08-4.209 3.691 3.691 0 0 1 3.855-4.016h25.663a3.692 3.692 0 0 1 3.856 4.016 4.055 4.055 0 0 1 -4.08 4.209zm-25.439-7.225a2.727 2.727 0 0 0 -2.855 3.018 3.043 3.043 0 0 0 3.08 3.209h25.214a3.043 3.043 0 0 0 3.08-3.209 2.728 2.728 0 0 0 -2.856-3.018z" fill="#323c6b"/><path d="m45.7 27.8-.082 4.374c0 6.793-5.156 12.777-11.995 13.177a12.758 12.758 0 0 1 -13.6-12.686l-.096-4.865v-.937c.155-2.774.946-6.075 2.519-7.757 10.085 3.583 19.051 3.9 20.961 0a21.693 21.693 0 0 1 2.182 7.757z" fill="#fcd462"/><path d="m45.7 27.8-.08 4.37c0 6.79-5.16 12.78-12 13.18a12.772 12.772 0 0 1 -8.71-2.7 12.878 12.878 0 0 0 6.65 1.39c6.84-.4 11.99-6.39 11.99-13.18l.09-4.38-.11-.93a18.175 18.175 0 0 0 -1.14-5.2 3.7 3.7 0 0 0 1.02-1.25 21.852 21.852 0 0 1 2.18 7.76z" fill="#f7be56"/><path d="m48.5 21.832a11.622 11.622 0 0 1 -1.883 5.968h-.917l-.109-.937a21.693 21.693 0 0 0 -2.184-7.763c-1.91 3.9-10.876 3.583-20.961 0-1.573 1.682-2.364 4.983-2.519 7.757v.943h-1.327l-.609-1.619a36.777 36.777 0 0 1 -.746-4.347 20.568 20.568 0 0 1 .6-7.8 10.556 10.556 0 0 1 4.783-6.075 19.8 19.8 0 0 1 10.012-2.586 20.7 20.7 0 0 1 10.2 2.392 10.565 10.565 0 0 1 4.783 6.066 20.638 20.638 0 0 1 .877 8.001z" fill="#84879c"/><g opacity=".4"><path d="m48.5 21.83a11.751 11.751 0 0 1 -1.88 5.97h-.79a14.027 14.027 0 0 0 .92-4.16 20.7 20.7 0 0 0 -.87-8 10.594 10.594 0 0 0 -4.79-6.06 20.572 20.572 0 0 0 -10.2-2.4 19.729 19.729 0 0 0 -10.01 2.59 9.75 9.75 0 0 0 -1.34.94 10.445 10.445 0 0 1 3.09-2.75 19.729 19.729 0 0 1 10.01-2.59 20.69 20.69 0 0 1 10.2 2.39 10.614 10.614 0 0 1 4.79 6.07 20.672 20.672 0 0 1 .87 8z" fill="#707583"/></g><path d="m50.189 69.623h-44.964v-2.2a20.736 20.736 0 0 1 14.55-19.95c.237-.07.522-.139.841-.206a18.791 18.791 0 0 1 3.887-.384h.722a12.847 12.847 0 0 0 8.4 2.45 12.25 12.25 0 0 0 6.66-2.45h.841a18.792 18.792 0 0 1 3.887.384c.319.067.6.136.841.206a19.845 19.845 0 0 1 4.335 1.884" fill="#89c5cd"/><path d="m50.189 70.123h-44.963a.5.5 0 0 1 -.5-.5v-2.2a21.312 21.312 0 0 1 14.906-20.429c.248-.074.548-.146.881-.217a19.37 19.37 0 0 1 3.991-.395h.722a.5.5 0 0 1 .3.1 12.418 12.418 0 0 0 8.073 2.354 11.8 11.8 0 0 0 6.391-2.351.5.5 0 0 1 .3-.1h.842a19.353 19.353 0 0 1 3.99.395c.334.07.632.143.88.216a20.383 20.383 0 0 1 4.446 1.932.5.5 0 0 1 -.506.863 19.352 19.352 0 0 0 -4.226-1.837c-.225-.067-.5-.132-.8-.2a18.342 18.342 0 0 0 -3.783-.373h-.683a12.788 12.788 0 0 1 -6.795 2.449 13.408 13.408 0 0 1 -8.592-2.449h-.563a18.365 18.365 0 0 0 -3.784.373c-.3.064-.576.129-.8.2a20.306 20.306 0 0 0 -14.19 19.469v1.7h44.463a.5.5 0 1 1 0 1z" fill="#323c6b"/><path d="m62.858 46.044h-12.669v23.579h18.586v-17.663z" fill="#ebf0f3"/><path d="m66.839 51.708.251.252v17.663h1.685v-17.663l-.252-.252z" fill="#e1e6e9"/><g fill="#323c6b"><path d="m64.189 56.968h-9.665a.5.5 0 0 1 0-1h9.665a.5.5 0 0 1 0 1z"/><path d="m64.189 60.843h-9.665a.5.5 0 0 1 0-1h9.665a.5.5 0 0 1 0 1z"/><path d="m64.189 64.718h-9.665a.5.5 0 0 1 0-1h9.665a.5.5 0 0 1 0 1z"/><path d="m46.321 7.1a.5.5 0 0 1 -.321-.116c-.187-.16-.382-.311-.577-.462l.251-.438.307-.4c.263.2.471.365.67.536a.5.5 0 0 1 -.325.88z"/><path d="m51.192 16.438a.5.5 0 0 1 -.491-.413 25.6 25.6 0 0 0 -.681-2.915 12.912 12.912 0 0 0 -2.3-4.381.5.5 0 0 1 .78-.629 13.914 13.914 0 0 1 2.479 4.72 26.5 26.5 0 0 1 .707 3.026.5.5 0 0 1 -.4.58.5.5 0 0 1 -.094.012z"/><path d="m5.5 55.833a.5.5 0 0 1 -.433-.751 24.543 24.543 0 0 1 6.736-7.48.5.5 0 0 1 .588.81 23.515 23.515 0 0 0 -6.459 7.173.5.5 0 0 1 -.432.248z"/><path d="m3.838 59.333a.5.5 0 0 1 -.467-.679l.052-.135c.075-.2.15-.394.231-.587a.5.5 0 1 1 .922.386c-.076.184-.148.371-.22.558l-.052.137a.5.5 0 0 1 -.466.32z"/></g><path d="m62.858 51.96h5.917l-5.917-5.916z" fill="#d5d6db"/><path d="m68.774 52.46h-5.916a.5.5 0 0 1 -.5-.5v-5.916a.5.5 0 0 1 .854-.354l5.916 5.916a.5.5 0 0 1 -.354.854zm-5.416-1h4.209l-4.209-4.209z" fill="#323c6b"/><path d="m16.777 70.127a.5.5 0 0 1 -.5-.5v-9.284a.5.5 0 0 1 1 0v9.284a.5.5 0 0 1 -.5.5z" fill="#323c6b"/><path d="m48.838 70.127a.5.5 0 0 1 -.5-.5v-9.284a.5.5 0 0 1 1 0v9.284a.5.5 0 0 1 -.5.5z" fill="#323c6b"/><path d="m46.617 28.3h-.917a.5.5 0 0 1 -.5-.442l-.108-.937a19.938 19.938 0 0 0 -1.774-6.774c-2.683 3.174-10.73 3.035-20.719-.456-1.4 1.714-2.039 4.8-2.174 7.2v.909a.5.5 0 0 1 -.5.5h-1.325a.5.5 0 0 1 -.468-.324l-.609-1.619a36.782 36.782 0 0 1 -.775-4.468 21.293 21.293 0 0 1 .619-8 11 11 0 0 1 5.009-6.363 20.405 20.405 0 0 1 10.264-2.653 21.461 21.461 0 0 1 10.46 2.46 11.017 11.017 0 0 1 5.01 6.354 21.266 21.266 0 0 1 .89 8.183 12.1 12.1 0 0 1 -1.977 6.221.5.5 0 0 1 -.406.209zm-.474-1h.212a11.51 11.51 0 0 0 1.645-5.507 20.064 20.064 0 0 0 -.854-7.82 10.013 10.013 0 0 0 -4.555-5.773 20.443 20.443 0 0 0 -9.951-2.327 19.4 19.4 0 0 0 -9.762 2.515 10.008 10.008 0 0 0 -4.554 5.785 20.337 20.337 0 0 0 -.581 7.623 36.336 36.336 0 0 0 .733 4.268l.468 1.233h.482v-.437c.151-2.719.928-6.251 2.654-8.1a.5.5 0 0 1 .532-.13c10.1 3.589 18.66 3.695 20.345.251a.458.458 0 0 1 .457-.28.5.5 0 0 1 .448.294 22.221 22.221 0 0 1 2.226 7.936z" fill="#323c6b"/><path d="m32.8 45.874a13.211 13.211 0 0 1 -9.127-3.616 13.051 13.051 0 0 1 -4.155-9.6l-.091-5.8c.151-2.719.928-6.251 2.654-8.1a.5.5 0 0 1 .532-.13c10.1 3.589 18.66 3.695 20.345.251a.458.458 0 0 1 .457-.28.5.5 0 0 1 .448.294 22.221 22.221 0 0 1 2.226 7.936l.106.906v.067l-.081 4.374a13.5 13.5 0 0 1 -12.463 13.671q-.427.027-.851.027zm-10.2-26.186c-1.4 1.714-2.039 4.8-2.174 7.2v.912l.091 4.856a12.069 12.069 0 0 0 3.84 8.876 12.239 12.239 0 0 0 9.234 3.32 12.5 12.5 0 0 0 11.526-12.681l.08-4.35-.1-.9a19.938 19.938 0 0 0 -1.774-6.774c-2.687 3.17-10.735 3.032-20.723-.459z" fill="#323c6b"/><path d="m28.657 18.676a.531.531 0 0 1 -.1-.01l-.6-.12a.55.55 0 1 1 .221-1.077l.588.117a.55.55 0 0 1 -.1 1.09z" fill="#fff"/><path d="m19.344 18.844a.551.551 0 0 1 -.511-.754 8.059 8.059 0 0 1 1.516-2.528.549.549 0 0 1 .586-.143c1.557.553 3.11 1.036 4.618 1.434a.55.55 0 1 1 -.281 1.063c-1.422-.375-2.884-.824-4.351-1.336a7.571 7.571 0 0 0 -1.067 1.92.551.551 0 0 1 -.51.344z" fill="#fff"/><path d="m68.774 70.123h-18.585a.5.5 0 0 1 -.5-.5v-23.579a.5.5 0 0 1 .5-.5h12.669a.5.5 0 0 1 .354.146l5.916 5.916a.5.5 0 0 1 .146.354v17.663a.5.5 0 0 1 -.5.5zm-18.085-1h17.585v-16.956l-5.623-5.623h-11.962z" fill="#323c6b"/></g></svg>