<svg height="512" viewBox="0 0 74 74" width="512" xmlns="http://www.w3.org/2000/svg"><g id="color_line" data-name="color line"><path d="m26.85 51.452h-23.142a.5.5 0 0 1 -.462-.692l9.914-23.809a.5.5 0 0 1 .924.385l-9.626 23.116h21.642l-9.627-23.116a.5.5 0 0 1 .924-.385l9.915 23.809a.5.5 0 0 1 -.462.692z" fill="#323c6b"/><path d="m15.282 62.373c6.185 0 11.574-4.879 11.574-10.9v-.523h-23.148v.525c0 6.019 5.392 10.898 11.574 10.898z" fill="#84879c"/><path d="m71.706 51.452h-23.142a.5.5 0 0 1 -.462-.692l9.915-23.809a.5.5 0 0 1 .924.385l-9.627 23.116h21.642l-9.626-23.116a.5.5 0 0 1 .924-.385l9.914 23.809a.5.5 0 0 1 -.462.692z" fill="#323c6b"/><path d="m60.134 62.373c6.185 0 11.574-4.879 11.574-10.9v-.523h-23.147v.525c0 6.019 5.388 10.898 11.573 10.898z" fill="#84879c"/><g opacity=".4"><path d="m26.86 50.95v.53c0 6.01-5.39 10.89-11.58 10.89a9.725 9.725 0 0 1 -1.43-.1c5.56-.67 10.14-5.25 10.14-10.79v-.53z" fill="#62667c"/></g><g opacity=".4"><path d="m71.71 50.95v.53c0 6.01-5.39 10.89-11.58 10.89a11.322 11.322 0 0 1 -1.43-.09c5.56-.68 10.14-5.26 10.14-10.8v-.53z" fill="#62667c"/></g><path d="m40.368 17.303v44.461h-5.32v-44.461" fill="#84879c"/><path d="m40.368 62.264h-5.32a.5.5 0 0 1 -.5-.5v-44.464a.5.5 0 0 1 1 0v43.964h4.32v-43.964a.5.5 0 0 1 1 0v44.464a.5.5 0 0 1 -.5.5z" fill="#323c6b"/><path d="m52.464 69.589v.47h-29.512v-.47c0-4.322 3.91-7.825 8.733-7.825h12.046c4.823 0 8.733 3.503 8.733 7.825z" fill="#84879c"/><path d="m52.464 70.559h-29.512a.5.5 0 0 1 -.5-.5v-.47c0-4.59 4.142-8.325 9.232-8.325h12.047c5.091 0 9.232 3.735 9.232 8.325v.47a.5.5 0 0 1 -.499.5zm-29.012-1h28.512c-.019-4.025-3.7-7.295-8.232-7.295h-12.047c-4.529 0-8.214 3.269-8.233 7.295z" fill="#323c6b"/><path d="m12.461 21.726a3.6 3.6 0 0 0 0 4.451h-4.9a2.226 2.226 0 0 1 -2.226-2.226 2.226 2.226 0 0 1 2.226-2.226z" fill="#84879c"/><path d="m12.461 26.678h-4.9a2.726 2.726 0 0 1 0-5.451h4.9a.5.5 0 0 1 .392.811 3.04 3.04 0 0 0 -.662 1.909 3.1 3.1 0 0 0 .662 1.921.5.5 0 0 1 -.392.811zm-4.9-4.451a1.726 1.726 0 0 0 0 3.451h4.008a4.125 4.125 0 0 1 -.381-1.731 4.053 4.053 0 0 1 .377-1.72z" fill="#323c6b"/><path d="m40.364 21.726h16.954a3.558 3.558 0 0 0 0 4.451h-16.954z" fill="#84879c"/><path d="m57.317 26.678h-16.953a.5.5 0 0 1 -.5-.5v-4.451a.5.5 0 0 1 .5-.5h16.953a.5.5 0 0 1 .389.815 2.987 2.987 0 0 0 -.671 1.9 3.049 3.049 0 0 0 .671 1.917.5.5 0 0 1 -.389.815zm-16.453-1h15.556a4.086 4.086 0 0 1 -.385-1.731 4 4 0 0 1 .381-1.72h-15.552z" fill="#323c6b"/><path d="m35.05 26.178h-16.95a3.558 3.558 0 0 0 0-4.451h16.95z" fill="#84879c"/><path d="m35.05 26.678h-16.95a.5.5 0 0 1 -.389-.815 3.049 3.049 0 0 0 .671-1.917 2.987 2.987 0 0 0 -.671-1.9.5.5 0 0 1 .389-.815h16.95a.5.5 0 0 1 .5.5v4.451a.5.5 0 0 1 -.5.496zm-16.056-1h15.556v-3.451h-15.55a4 4 0 0 1 .381 1.72 4.086 4.086 0 0 1 -.387 1.731z" fill="#323c6b"/><path d="m69.337 23.952a2.226 2.226 0 0 1 -2.226 2.226h-4.158a3.6 3.6 0 0 0 0-4.451h4.158a2.226 2.226 0 0 1 2.226 2.225z" fill="#84879c"/><path d="m67.111 26.678h-4.158a.5.5 0 0 1 -.392-.811 3.1 3.1 0 0 0 .662-1.921 3.04 3.04 0 0 0 -.662-1.909.5.5 0 0 1 .392-.811h4.158a2.726 2.726 0 0 1 0 5.451zm-3.269-1h3.269a1.726 1.726 0 0 0 0-3.451h-3.264a4.053 4.053 0 0 1 .377 1.72 4.125 4.125 0 0 1 -.381 1.731z" fill="#323c6b"/><path d="m18.879 23.946a3.614 3.614 0 0 1 -3.6 3.6 3.594 3.594 0 1 1 2.818-5.82 3.5 3.5 0 0 1 .782 2.22z" fill="#84879c"/><path d="m15.278 28.046a4.091 4.091 0 0 1 -4.088-4.1 4.029 4.029 0 0 1 .879-2.53 4.085 4.085 0 0 1 6.422 0 3.978 3.978 0 0 1 .888 2.527 4.114 4.114 0 0 1 -4.1 4.1zm0-7.188a3.087 3.087 0 0 0 -2.426 1.18 3.038 3.038 0 0 0 -.662 1.909 3.091 3.091 0 0 0 3.088 3.1 3.115 3.115 0 0 0 3.1-3.1 2.987 2.987 0 0 0 -.671-1.9 3.056 3.056 0 0 0 -2.429-1.189z" fill="#323c6b"/><path d="m63.724 23.946a3.593 3.593 0 0 1 -.771 2.231 3.6 3.6 0 0 1 -6.418-2.231 3.5 3.5 0 0 1 .782-2.22 3.588 3.588 0 0 1 6.406 2.22z" fill="#84879c"/><path d="m60.136 28.046a4.114 4.114 0 0 1 -4.1-4.1 3.984 3.984 0 0 1 .894-2.535 4.088 4.088 0 0 1 7.295 2.535 4.107 4.107 0 0 1 -.879 2.542 4.042 4.042 0 0 1 -3.21 1.558zm0-7.188a3.051 3.051 0 0 0 -2.424 1.176 2.993 2.993 0 0 0 -.677 1.912 3.095 3.095 0 0 0 5.523 1.924 3.1 3.1 0 0 0 .665-1.924 3.091 3.091 0 0 0 -3.088-3.088z" fill="#323c6b"/><circle cx="37.707" cy="12.72" fill="#84879c" r="5.122"/><g fill="#323c6b"><path d="m37.707 18.342a5.622 5.622 0 1 1 5.622-5.622 5.629 5.629 0 0 1 -5.622 5.622zm0-10.244a4.622 4.622 0 1 0 4.622 4.622 4.627 4.627 0 0 0 -4.622-4.62z"/><path d="m70.057 62.021a.5.5 0 0 1 -.334-.872 13.323 13.323 0 0 0 4.2-7.048.5.5 0 0 1 .977.214 14.311 14.311 0 0 1 -4.508 7.577.5.5 0 0 1 -.335.129z"/><path d="m64.9 65.063a.5.5 0 0 1 -.163-.973c.47-.162.917-.34 1.33-.53a.5.5 0 0 1 .416.909c-.441.2-.919.393-1.42.566a.5.5 0 0 1 -.163.028z"/><path d="m29.786 12.869h-.019a.5.5 0 0 1 -.481-.518c.006-.141.015-.281.027-.42a.5.5 0 0 1 1 .09c-.011.122-.02.244-.023.367a.5.5 0 0 1 -.504.481z"/><path d="m30.317 10.35a.5.5 0 0 1 -.182-.034.5.5 0 0 1 -.284-.647 8.432 8.432 0 0 1 7.482-5.362.5.5 0 1 1 .043 1 7.431 7.431 0 0 0 -6.594 4.727.5.5 0 0 1 -.465.316z"/><path d="m15.278 51.452a.5.5 0 0 1 -.5-.5v-23.406a.5.5 0 0 1 1 0v23.406a.5.5 0 0 1 -.5.5z"/><path d="m60.136 51.452a.5.5 0 0 1 -.5-.5v-23.406a.5.5 0 0 1 1 0v23.406a.5.5 0 0 1 -.5.5z"/><path d="m15.281 62.873c-6.544 0-12.073-5.22-12.073-11.4v-.523a.5.5 0 0 1 .5-.5h23.147a.5.5 0 0 1 .5.5v.525c0 6.178-5.529 11.398-12.074 11.398zm-11.073-11.423v.025c0 5.636 5.071 10.4 11.073 10.4s11.074-4.762 11.074-10.4v-.025z"/><path d="m15.511 60.259a9.4 9.4 0 0 1 -7.206-3.4.5.5 0 0 1 .773-.634 8.385 8.385 0 0 0 6.433 3.034.5.5 0 0 1 0 1z"/><path d="m7.519 55.12a.5.5 0 0 1 -.461-.307l-.1-.25a.5.5 0 1 1 .932-.363l.093.227a.5.5 0 0 1 -.268.654.494.494 0 0 1 -.196.039z"/><path d="m60.135 62.873c-6.545 0-12.074-5.22-12.074-11.4v-.523a.5.5 0 0 1 .5-.5h23.147a.5.5 0 0 1 .5.5v.525c0 6.178-5.529 11.398-12.073 11.398zm-11.074-11.423v.025c0 5.636 5.071 10.4 11.074 10.4s11.073-4.762 11.073-10.4v-.025z"/></g><path d="m15.531 60.359a9.494 9.494 0 0 1 -7.283-3.437.6.6 0 1 1 .928-.76 8.287 8.287 0 0 0 6.355 3 .6.6 0 0 1 0 1.2z" fill="#fff"/><path d="m7.539 55.22a.6.6 0 0 1 -.551-.362c-.037-.085-.072-.172-.105-.258a.6.6 0 1 1 1.117-.437l.09.219a.6.6 0 0 1 -.551.838z" fill="#fff"/></g></svg>