<svg height="512" viewBox="0 0 74 74" width="512" xmlns="http://www.w3.org/2000/svg"><g id="color_line" data-name="color line"><path d="m18.508 33.97-.055-.015a10.006 10.006 0 0 0 -11.584 5.288 10.366 10.366 0 0 0 6.108 14.341 1.436 1.436 0 0 1 1.023 1.416 1.435 1.435 0 0 1 -1.838 1.324 13.134 13.134 0 0 1 -9.382-14.583 13.29 13.29 0 0 1 15.109-11.175c.1.015.2.03.3.052l-.3.285c-.764.865-.441 2.029.619 3.067z" fill="#ebf0f3"/><path d="m12.573 56.884a1.951 1.951 0 0 1 -.547-.079 13.557 13.557 0 0 1 -9.741-15.138 13.8 13.8 0 0 1 15.678-11.6c.124.019.233.036.334.059a.5.5 0 0 1 .238.85l-.3.284c-.742.839.186 1.924.621 2.35a.5.5 0 0 1 -.489.837h-.011a9.544 9.544 0 0 0 -11.036 5.011 9.772 9.772 0 0 0 -.144 8.242 9.661 9.661 0 0 0 5.948 5.407 1.944 1.944 0 0 1 1.376 1.908 1.935 1.935 0 0 1 -1.931 1.869zm3.35-25.964a12.808 12.808 0 0 0 -12.649 10.9 12.566 12.566 0 0 0 9.031 14.03.93.93 0 1 0 .524-1.784 10.7 10.7 0 0 1 4.471-20.857 2.28 2.28 0 0 1 -.079-2.223 12.811 12.811 0 0 0 -1.298-.066z" fill="#323c6b"/><path d="m29.065 45.675a12.992 12.992 0 0 1 -8.08 10.09 1.419 1.419 0 0 1 -1.843-.807 1.412 1.412 0 0 1 .73-1.82 10.278 10.278 0 0 0 6.019-7.938 10.034 10.034 0 0 0 -.459-4.832 2.414 2.414 0 0 0 2.258-.5l.726-.677a13.153 13.153 0 0 1 .649 6.484z" fill="#ebf0f3"/><path d="m20.466 56.369a1.891 1.891 0 0 1 -.742-.153 1.958 1.958 0 0 1 -1.047-1.074 1.92 1.92 0 0 1 1-2.463 9.8 9.8 0 0 0 5.723-7.553 9.584 9.584 0 0 0 -.437-4.591.5.5 0 0 1 .61-.647 1.914 1.914 0 0 0 1.791-.393l.713-.666a.493.493 0 0 1 .458-.121.5.5 0 0 1 .353.315 13.749 13.749 0 0 1 .674 6.726 13.491 13.491 0 0 1 -8.385 10.479 1.859 1.859 0 0 1 -.711.141zm5.673-15.4a10.607 10.607 0 0 1 .246 4.31 10.809 10.809 0 0 1 -6.316 8.321.914.914 0 0 0 -.462 1.176.95.95 0 0 0 .509.521.876.876 0 0 0 .68.008 12.5 12.5 0 0 0 7.775-9.7l.495.074-.496-.079a12.564 12.564 0 0 0 -.384-5.508l-.156.146a2.926 2.926 0 0 1 -1.89.726z" fill="#323c6b"/><path d="m25.832 26.016a1.823 1.823 0 0 1 -.069 2.657l-.016-.026a.673.673 0 0 0 .092 1.048l4 4.28c1.2 1.221 1.542 2.6.246 3.786l-2.391 2.112a2.414 2.414 0 0 1 -2.258.5 2.324 2.324 0 0 1 -.7-.339l-5.956-5.815c-.1-.081-.19-.169-.272-.249-1.061-1.039-1.384-2.2-.616-3.068l5.415-4.924a1.823 1.823 0 0 1 2.524.037z" fill="#d5d6db"/><path d="m26.109 40.964a2.946 2.946 0 0 1 -.816-.116 2.846 2.846 0 0 1 -.844-.411l-6.018-5.861c-.078-.064-.181-.161-.27-.247-1.314-1.287-1.559-2.727-.643-3.76l5.453-4.962a2.316 2.316 0 0 1 3.212.052 2.322 2.322 0 0 1 -.087 3.386.449.449 0 0 1 -.052.041.177.177 0 0 0 .073.193.5.5 0 0 1 .087.074l4 4.28a3.593 3.593 0 0 1 1.206 2.537 2.726 2.726 0 0 1 -.988 1.959l-2.4 2.118a2.907 2.907 0 0 1 -1.913.717zm-1.559-14.976a1.321 1.321 0 0 0 -.9.356l-5.419 4.928c-.733.831.194 1.916.629 2.342.072.069.158.15.245.224l5.982 5.833a2 2 0 0 0 .484.217 1.918 1.918 0 0 0 1.792-.393l2.388-2.109a1.765 1.765 0 0 0 .657-1.242 2.664 2.664 0 0 0 -.928-1.818l-3.971-4.253a1.173 1.173 0 0 1 -.1-1.789.494.494 0 0 1 .134-.091 1.325 1.325 0 0 0 -.988-2.2z" fill="#323c6b"/><path d="m22.477 35.125a.6.6 0 0 1 -.415-.167l-.58-.553c-1.358-1.331-1.605-2.824-.65-3.9l1.24-1.133a.6.6 0 1 1 .808.888l-1.2 1.087c-.669.76.218 1.791.632 2.2l.574.548a.6.6 0 0 1 -.415 1.034z" fill="#fff"/><path d="m24.126 36.708a.6.6 0 0 1 -.419-.17l-.337-.329a.6.6 0 1 1 .838-.859l.337.329a.6.6 0 0 1 -.419 1.03z" fill="#fff"/><circle cx="26.528" cy="36.237" fill="#84879c" r="1.121" transform="matrix(.148 -.989 .989 .148 -13.237 57.11)"/><path d="m16.411 55.964a.5.5 0 0 1 -.012-1 6.341 6.341 0 0 0 2.481-.538.5.5 0 0 1 .457.89 7.223 7.223 0 0 1 -2.914.648z" fill="#323c6b"/><path d="m56.226 37.432.057-.007a10.006 10.006 0 0 1 10.674 6.944 10.366 10.366 0 0 1 -8.163 13.279 1.436 1.436 0 0 0 -1.225 1.246 1.435 1.435 0 0 0 1.621 1.586 13.134 13.134 0 0 0 11.442-13.034 13.29 13.29 0 0 0 -13.289-13.289c-.1 0-.206 0-.306.007" fill="#ebf0f3"/><path d="m58.993 60.994a1.929 1.929 0 0 1 -.274-3.839 9.66 9.66 0 0 0 6.681-4.467 9.773 9.773 0 0 0 1.078-8.172 9.536 9.536 0 0 0 -10.136-6.593.526.526 0 0 1 -.584-.431.476.476 0 0 1 .4-.554l.059-.008a10.548 10.548 0 0 1 11.215 7.293 10.866 10.866 0 0 1 -8.565 13.92.93.93 0 1 0 .254 1.842 12.566 12.566 0 0 0 11.01-12.539 12.8 12.8 0 0 0 -12.788-12.789c-.087 0-.183 0-.271.006a.5.5 0 0 1 -.068-1c.111-.007.229-.008.34-.008a13.8 13.8 0 0 1 13.787 13.791 13.557 13.557 0 0 1 -11.874 13.53 2.013 2.013 0 0 1 -.264.018z" fill="#323c6b"/><path d="m45.673 40.992a13.725 13.725 0 0 0 -1.619 6.453 12.992 12.992 0 0 0 6.5 11.175 1.419 1.419 0 0 0 1.942-.526 1.412 1.412 0 0 0 -.452-1.908 10.278 10.278 0 0 1 -4.778-8.741 10.038 10.038 0 0 1 1.007-4.392" fill="#ebf0f3"/><path d="m51.251 59.314a1.856 1.856 0 0 1 -.957-.265 13.489 13.489 0 0 1 -6.741-11.6 14.237 14.237 0 0 1 1.68-6.692.5.5 0 0 1 .879.478 13.213 13.213 0 0 0 -1.559 6.215 12.5 12.5 0 0 0 6.254 10.746.876.876 0 0 0 .673.093.95.95 0 0 0 .58-.44.914.914 0 0 0 -.283-1.232 10.809 10.809 0 0 1 -5.015-9.167 10.462 10.462 0 0 1 1.058-4.61.5.5 0 0 1 .9.437 9.477 9.477 0 0 0 -.958 4.174 9.8 9.8 0 0 0 4.538 8.311 1.922 1.922 0 0 1 .622 2.584 1.956 1.956 0 0 1 -1.2.907 1.923 1.923 0 0 1 -.471.061z" fill="#323c6b"/><path d="m42.793 33.623a1.823 1.823 0 0 1 2.62.45l.156.293a.673.673 0 0 0 1.051.06l4.81-3.338c1.381-1.013 2.8-1.152 3.782.3l1.746 2.67a2.414 2.414 0 0 1 .165 2.305 2.324 2.324 0 0 1 -.436.639l-6.606 5.059c-.094.083-.195.163-.285.233-1.181.9-2.379 1.052-3.125.168l-4.278-6.348a1.823 1.823 0 0 1 .4-2.492z" fill="#d5d6db"/><path d="m47.922 43.553a2.077 2.077 0 0 1 -1.633-.768l-4.311-6.391a2.315 2.315 0 0 1 .513-3.17 2.323 2.323 0 0 1 3.338.573l.18.334a.507.507 0 0 0 .1.018.178.178 0 0 0 .144-.059.476.476 0 0 1 .085-.075l4.81-3.338a3.575 3.575 0 0 1 2.685-.829 2.724 2.724 0 0 1 1.8 1.259l1.751 2.676a2.912 2.912 0 0 1 .2 2.786 2.82 2.82 0 0 1 -.528.775l-6.665 5.113c-.077.069-.187.156-.285.232a3.689 3.689 0 0 1 -2.184.864zm-4.035-9.8a1.31 1.31 0 0 0 -.793.268 1.32 1.32 0 0 0 -.29 1.809l4.282 6.353c.718.846 1.924.082 2.407-.286.082-.062.173-.136.259-.211l6.631-5.081a1.97 1.97 0 0 0 .284-.447 1.91 1.91 0 0 0 -.13-1.83l-1.744-2.667a1.763 1.763 0 0 0 -1.134-.828 2.657 2.657 0 0 0 -1.933.657l-4.78 3.318a1.192 1.192 0 0 1 -.9.338 1.164 1.164 0 0 1 -.884-.493l-.188-.347a1.3 1.3 0 0 0 -.856-.534 1.4 1.4 0 0 0 -.23-.018z" fill="#323c6b"/><circle cx="53.193" cy="34.685" fill="#84879c" r="1.121" transform="matrix(.289 -.957 .957 .289 4.629 75.6)"/><g fill="#323c6b"><path d="m55.12 59.5a.521.521 0 0 1 -.086-.007 7.236 7.236 0 0 1 -2.786-1.072.5.5 0 0 1 .583-.812 6.344 6.344 0 0 0 2.374.9.5.5 0 0 1 -.085.993z"/><path d="m48.215 25.831a4.882 4.882 0 0 1 -2.512-.887c-1.573-1.011-2.314-2.3-1.887-3.273a1.508 1.508 0 0 1 .985-.811 3.95 3.95 0 0 1 3.107.647 4.016 4.016 0 0 1 1.911 2.6 1.49 1.49 0 0 1 -.323 1.218 1.657 1.657 0 0 1 -1.281.506zm-2.65-4.075a1.661 1.661 0 0 0 -.474.062.572.572 0 0 0 -.359.254c-.178.407.339 1.278 1.511 2.031 1.2.767 2.214.886 2.509.557a.553.553 0 0 0 .076-.417 3.07 3.07 0 0 0 -1.459-1.893 3.417 3.417 0 0 0 -1.804-.594z"/><path d="m41.051 22.769a6.393 6.393 0 0 1 -1.147-.11c-1.823-.332-2.985-1.238-2.96-2.309a1.51 1.51 0 0 1 .6-1.124 4.378 4.378 0 0 1 5.771 1.052 1.51 1.51 0 0 1 .169 1.265c-.271.786-1.184 1.226-2.433 1.226zm-1.305-3.209a2.577 2.577 0 0 0 -1.566.44.572.572 0 0 0 -.236.372c-.011.447.787 1.056 2.14 1.3s2.313-.042 2.462-.463a.575.575 0 0 0 -.09-.432 2.967 2.967 0 0 0 -2-1.155 4 4 0 0 0 -.71-.062z"/><path d="m32.315 22.9c-1.179 0-2.043-.4-2.327-1.133a1.489 1.489 0 0 1 .128-1.254 4.016 4.016 0 0 1 2.706-1.76 3.956 3.956 0 0 1 3.135.491 1.51 1.51 0 0 1 .636 1.107c.055 1.065-1.091 2.006-2.92 2.4a6.535 6.535 0 0 1 -1.358.149zm1.568-3.262a4.09 4.09 0 0 0 -.853.093 3.071 3.071 0 0 0 -2.03 1.261.553.553 0 0 0 -.076.417c.16.412 1.156.66 2.544.364 1.363-.291 2.153-.923 2.13-1.367a.568.568 0 0 0 -.246-.364 2.475 2.475 0 0 0 -1.469-.4z"/><path d="m34.9 20.954a.5.5 0 0 1 -.2-.957 5.93 5.93 0 0 1 4.091-.119.5.5 0 0 1 -.337.941 4.931 4.931 0 0 0 -3.346.091.5.5 0 0 1 -.208.044z"/><path d="m45.438 23.167a.5.5 0 0 1 -.363-.157 4.983 4.983 0 0 0 -3.025-1.434.5.5 0 0 1 -.473-.525.513.513 0 0 1 .523-.474 5.922 5.922 0 0 1 3.7 1.747.5.5 0 0 1 -.363.843z"/><path d="m28.793 33.36a.5.5 0 0 1 -.472-.333c-2.927-8.294 1.644-11.7 1.84-11.842a.5.5 0 0 1 .585.811c-.173.127-4.147 3.149-1.482 10.7a.5.5 0 0 1 -.305.638.51.51 0 0 1 -.166.026z"/><path d="m49.113 33.2a.5.5 0 0 1 -.392-.81c3.246-4.1.2-6.9.07-7.019a.5.5 0 1 1 .666-.746c.039.035 3.871 3.551.048 8.385a.5.5 0 0 1 -.392.19z"/><path d="m9.147 58.874a.5.5 0 0 1 -.207-.045l-.227-.1c-.169-.075-.339-.149-.5-.234a.5.5 0 1 1 .458-.889c.145.075.3.141.447.207l.24.107a.5.5 0 0 1 -.208.955z"/><path d="m5.813 56.841a.5.5 0 0 1 -.31-.108 16.938 16.938 0 0 1 -4.916-6.345.5.5 0 1 1 .913-.408 15.936 15.936 0 0 0 4.625 5.97.5.5 0 0 1 -.311.892z"/><path d="m71.106 39.271a.5.5 0 0 1 -.423-.233 16.024 16.024 0 0 0 -5.131-5.056.5.5 0 0 1 .523-.853 17.03 17.03 0 0 1 5.453 5.371.5.5 0 0 1 -.155.689.494.494 0 0 1 -.267.082z"/><path d="m72.823 42.975a.5.5 0 0 1 -.476-.346l-.064-.2c-.065-.2-.129-.408-.206-.607a.5.5 0 1 1 .934-.358c.083.217.154.44.225.662l.063.2a.5.5 0 0 1 -.476.654z"/></g></g></svg>