<svg height="512" viewBox="0 0 74 74" width="512" xmlns="http://www.w3.org/2000/svg"><g id="color_line" data-name="color line"><path d="m2.897 29.744h68v6.648h-68z" fill="#d5d6db"/><path d="m70.9 36.892h-68a.5.5 0 0 1 -.5-.5v-6.648a.5.5 0 0 1 .5-.5h68a.5.5 0 0 1 .5.5v6.648a.5.5 0 0 1 -.5.5zm-67.5-1h67v-5.648h-67z" fill="#323c6b"/><path d="m7.302 36.392h59.19v31.691h-59.19z" fill="#ebf0f3"/><path d="m63.687 36.39h2.802v31.69h-2.802z" fill="#e1e6e9"/><path d="m12.897 41.288h48v21.057h-48z" fill="#e1e6e9"/><g fill="#323c6b"><path d="m60.9 62.845h-48a.5.5 0 0 1 -.5-.5v-21.057a.5.5 0 0 1 .5-.5h48a.5.5 0 0 1 .5.5v21.057a.5.5 0 0 1 -.5.5zm-47.5-1h47v-20.057h-47z"/><path d="m64.314 71.583h-9.25a.5.5 0 0 1 0-1h9.25a.5.5 0 0 1 0 1z"/><path d="m52.48 71.583h-1a.5.5 0 0 1 0-1h1a.5.5 0 0 1 0 1z"/><path d="m4.3 55.475a.5.5 0 0 1 -.5-.5v-.766a.5.5 0 0 1 1 0v.766a.5.5 0 0 1 -.5.5z"/><path d="m4.3 51.725a.5.5 0 0 1 -.5-.5v-7.875a.5.5 0 0 1 1 0v7.875a.5.5 0 0 1 -.5.5z"/></g><circle cx="58.303" cy="16.032" fill="#89c5cd" r="4.664"/><path d="m54.365 23h7.875a5 5 0 0 1 5 5v1.747a0 0 0 0 1 0 0h-17.871a0 0 0 0 1 0 0v-1.747a5 5 0 0 1 4.996-5z" fill="#89c5cd"/><path d="m62.968 16.03a4.668 4.668 0 0 1 -2.39 4.08 4.585 4.585 0 0 0 .75-2.53 4.66 4.66 0 0 0 -4.67-4.66 4.569 4.569 0 0 0 -2.27.59 4.66 4.66 0 0 1 8.58 2.52z" fill="#80b8bc"/><path d="m67.235 28v1.74h-2.62v-1.677a5 5 0 0 0 -5-5h-6a4.4 4.4 0 0 1 .753-.063h7.869a4.991 4.991 0 0 1 4.998 5z" fill="#80b8bc"/><path d="m58.3 21.2a5.164 5.164 0 1 1 5.164-5.164 5.169 5.169 0 0 1 -5.164 5.164zm0-9.328a4.164 4.164 0 1 0 4.164 4.164 4.169 4.169 0 0 0 -4.164-4.168z" fill="#323c6b"/><path d="m67.237 30.244h-17.868a.5.5 0 0 1 -.5-.5v-1.744a5.5 5.5 0 0 1 5.5-5.5h7.875a5.5 5.5 0 0 1 5.5 5.5v1.747a.5.5 0 0 1 -.507.497zm-17.368-1h16.868v-1.244a4.5 4.5 0 0 0 -4.5-4.5h-7.872a4.5 4.5 0 0 0 -4.5 4.5z" fill="#323c6b"/><circle cx="36.897" cy="16.032" fill="#89c5cd" r="4.664"/><path d="m32.96 23h7.875a5 5 0 0 1 5 5v1.747a0 0 0 0 1 0 0h-17.872a0 0 0 0 1 0 0v-1.747a5 5 0 0 1 4.997-5z" fill="#89c5cd"/><path d="m41.562 16.03a4.668 4.668 0 0 1 -2.39 4.08 4.585 4.585 0 0 0 .75-2.53 4.66 4.66 0 0 0 -4.67-4.66 4.569 4.569 0 0 0 -2.27.59 4.66 4.66 0 0 1 8.58 2.52z" fill="#80b8bc"/><path d="m45.829 28v1.74h-2.619v-1.677a5 5 0 0 0 -5-5h-6a4.4 4.4 0 0 1 .752-.063h7.869a4.991 4.991 0 0 1 4.998 5z" fill="#80b8bc"/><path d="m36.9 21.2a5.164 5.164 0 1 1 5.164-5.164 5.17 5.17 0 0 1 -5.164 5.164zm0-9.328a4.164 4.164 0 1 0 4.164 4.164 4.169 4.169 0 0 0 -4.164-4.168z" fill="#323c6b"/><path d="m45.832 30.244h-17.869a.5.5 0 0 1 -.5-.5v-1.744a5.5 5.5 0 0 1 5.5-5.5h7.875a5.5 5.5 0 0 1 5.5 5.5v1.747a.5.5 0 0 1 -.506.497zm-17.368-1h16.868v-1.244a4.5 4.5 0 0 0 -4.5-4.5h-7.873a4.5 4.5 0 0 0 -4.5 4.5z" fill="#323c6b"/><circle cx="15.492" cy="16.032" fill="#89c5cd" r="4.664"/><path d="m11.554 23h7.875a5 5 0 0 1 5 5v1.747a0 0 0 0 1 0 0h-17.872a0 0 0 0 1 0 0v-1.747a5 5 0 0 1 4.997-5z" fill="#89c5cd"/><path d="m20.156 16.03a4.668 4.668 0 0 1 -2.39 4.08 4.585 4.585 0 0 0 .75-2.53 4.66 4.66 0 0 0 -4.67-4.66 4.569 4.569 0 0 0 -2.27.59 4.66 4.66 0 0 1 8.58 2.52z" fill="#80b8bc"/><path d="m24.424 28v1.74h-2.624v-1.677a5 5 0 0 0 -5-5h-6a4.4 4.4 0 0 1 .757-.063h7.869a4.991 4.991 0 0 1 4.998 5z" fill="#80b8bc"/><path d="m15.492 21.2a5.164 5.164 0 1 1 5.164-5.164 5.17 5.17 0 0 1 -5.164 5.164zm0-9.328a4.164 4.164 0 1 0 4.164 4.164 4.169 4.169 0 0 0 -4.164-4.168z" fill="#323c6b"/><path d="m24.426 30.244h-17.868a.5.5 0 0 1 -.5-.5v-1.744a5.5 5.5 0 0 1 5.5-5.5h7.875a5.5 5.5 0 0 1 5.5 5.5v1.747a.5.5 0 0 1 -.507.497zm-17.368-1h16.868v-1.244a4.5 4.5 0 0 0 -4.5-4.5h-7.872a4.5 4.5 0 0 0 -4.5 4.5z" fill="#323c6b"/><path d="m66.492 68.583h-59.192a.5.5 0 0 1 -.5-.5v-31.691a.5.5 0 0 1 .5-.5h59.19a.5.5 0 0 1 .5.5v31.69a.5.5 0 0 1 -.498.501zm-58.69-1h58.19v-30.691h-58.192z" fill="#323c6b"/><path d="m57.537 33.668h-.9a.6.6 0 1 1 0-1.2h.9a.6.6 0 0 1 0 1.2z" fill="#fff"/><path d="m53.969 33.668h-10.169a.6.6 0 0 1 0-1.2h10.169a.6.6 0 1 1 0 1.2z" fill="#fff"/></g></svg>