<svg height="512" viewBox="0 0 74 74" width="512" xmlns="http://www.w3.org/2000/svg"><g id="color_line" data-name="color line"><path d="m49.958 3.797h-40.02v68h53.479v-54.542z" fill="#ebf0f3"/><path d="m60.328 17.167.089.088v54.542h3v-54.542l-.089-.088z" fill="#e1e6e9"/><path d="m31.777 40.918h-12.657a.5.5 0 0 1 -.459-.7l6.329-14.658a.521.521 0 0 1 .918 0l6.328 14.66a.5.5 0 0 1 -.459.7zm-11.9-1h11.14l-5.568-12.9z" fill="#323c6b"/><path d="m25.2 46.5h.491a6.084 6.084 0 0 0 6.084-6.084h-12.656a6.084 6.084 0 0 0 6.081 6.084z" fill="#89c5cd"/><path d="m25.694 47h-.494a6.591 6.591 0 0 1 -6.583-6.583.5.5 0 0 1 .5-.5h12.66a.5.5 0 0 1 .5.5 6.591 6.591 0 0 1 -6.583 6.583zm-6.052-6.083a5.592 5.592 0 0 0 5.558 5.083h.491a5.592 5.592 0 0 0 5.562-5.083z" fill="#323c6b"/><path d="m54.235 40.918h-12.658a.5.5 0 0 1 -.459-.7l6.329-14.658a.521.521 0 0 1 .918 0l6.329 14.66a.5.5 0 0 1 -.459.7zm-11.9-1h11.139l-5.568-12.9z" fill="#323c6b"/><path d="m47.66 46.5h.491a6.084 6.084 0 0 0 6.084-6.084h-12.658a6.084 6.084 0 0 0 6.083 6.084z" fill="#89c5cd"/><g fill="#323c6b"><path d="m48.151 47h-.491a6.591 6.591 0 0 1 -6.583-6.583.5.5 0 0 1 .5-.5h12.658a.5.5 0 0 1 .5.5 6.591 6.591 0 0 1 -6.584 6.583zm-6.051-6.082a5.592 5.592 0 0 0 5.56 5.082h.491a5.592 5.592 0 0 0 5.562-5.083z"/><path d="m36.677 50.61a.5.5 0 0 1 -.5-.5v-28.688a.5.5 0 0 1 1 0v28.688a.5.5 0 0 1 -.5.5z"/><path d="m51.322 26.26h-29.29a.5.5 0 0 1 0-1h29.29a.5.5 0 0 1 0 1z"/><path d="m41.05 50.61h-8.75a.5.5 0 0 1 0-1h8.75a.5.5 0 0 1 0 1z"/><path d="m54.673 57.533h-35.992a.5.5 0 1 1 0-1h35.992a.5.5 0 0 1 0 1z"/><path d="m54.673 64.439h-35.992a.5.5 0 1 1 0-1h35.992a.5.5 0 0 1 0 1z"/><path d="m6.938 11.318a.5.5 0 0 1 -.5-.5v-.646a.5.5 0 0 1 1 0v.646a.5.5 0 0 1 -.5.5z"/><path d="m6.938 8.255a.5.5 0 0 1 -.5-.5v-6.955a.5.5 0 0 1 .5-.5h5.552a.5.5 0 1 1 0 1h-5.052v6.455a.5.5 0 0 1 -.5.5z"/><path d="m66.417 42.13a.5.5 0 0 1 -.5-.5v-1.166a.5.5 0 0 1 1 0v1.166a.5.5 0 0 1 -.5.5z"/><path d="m66.417 54.214a.5.5 0 0 1 -.5-.5v-9.709a.5.5 0 0 1 1 0v9.708a.5.5 0 0 1 -.5.501z"/></g><path d="m49.958 17.255h13.459l-13.459-13.458z" fill="#d5d6db"/><path d="m63.417 17.755h-13.459a.5.5 0 0 1 -.5-.5v-13.455a.5.5 0 0 1 .854-.354l13.458 13.454a.5.5 0 0 1 -.354.854zm-12.958-1h11.75l-11.751-11.755z" fill="#323c6b"/><path d="m14.707 50.779v9.621a.641.641 0 0 1 -1.281 0v-9.621a.641.641 0 0 1 1.281 0z" fill="#fff"/><path d="m14.707 47.142v.6a.641.641 0 0 1 -1.281 0v-.6a.641.641 0 0 1 1.281 0z" fill="#fff"/><path d="m63.417 72.3h-53.479a.5.5 0 0 1 -.5-.5v-68a.5.5 0 0 1 .5-.5h40.02a.5.5 0 0 1 .354.146l13.458 13.454a.5.5 0 0 1 .146.354v54.546a.5.5 0 0 1 -.499.5zm-52.979-1h52.479v-53.838l-13.166-13.162h-39.313z" fill="#323c6b"/></g></svg>