<svg version="1" xmlns="http://www.w3.org/2000/svg" width="933.333" height="933.333" viewBox="0 0 700.000000 700.000000"><path d="M335 6.7C271.9 9.5 210.8 29.6 158 65c-22.2 14.9-51.9 41.4-68.9 61.4-42.6 50.1-69.7 110-79 174.1-7.8 53.3-3 107.7 14 158.5 15.1 45.4 40.8 88.8 73.7 124.5 15.9 17.1 35.9 34.6 54.7 47.7 49.2 34.3 101.9 53.9 163.5 60.9 16 1.9 54.7 1.6 72-.5 75-9 141.3-39.4 195.6-89.7 87.9-81.6 126.8-201.7 103.3-319.4-23.2-116.3-104.5-212.1-216-254.4C440 16.4 405.2 9.2 368.8 7c-15.6-.9-19.2-1-33.8-.3zM301 174c26.5.9 40.5 2.8 54.6 7.1 11.8 3.6 11.8 3.6 2.3 7.9-4.6 2-10.7 5.1-13.5 6.7-4.6 2.8-5.3 2.9-7.5 1.7-13.6-7.6-47.8-10.6-67.7-5.9-12.3 2.9-14 4.9-16.8 19.4-3.2 16.4-4.7 107.7-2 115.4 2.9 8.1 4.6 8.8 27 11.3 23.1 2.6 37.7.2 53.1-8.8 10.1-5.9 22-18.3 27.2-28.3 7.8-15 8.8-19.7 8.7-39 0-11.8-.5-18.9-1.6-23.3l-1.5-6.2 3.1-1.9c6-3.7 32.1-16.1 33.9-16.1 1.3 0 2.8 2.1 5.2 7.2 10.6 23.1 9.1 55.6-3.5 76.8-8.9 15.1-22.9 28-42 39.1-5 2.8-9 5.5-9 6 0 1.7 39.8 60.3 48.2 71 11.9 15.3 24.1 29.5 38.5 44.7 9.8 10.4 12.1 13.3 10.8 13.8-.9.4-7.4.4-14.3.1-15.4-.7-25.3-3.1-37.9-9.3l-9.2-4.5-15.6-23.2c-44.6-66.3-46.2-68.2-57.5-73.9-6.3-3.2-11.1-4.4-34.5-9.3-18.3-3.8-25-4.3-28.1-2.1-1.8 1.4-1.9 3.3-2.2 50.8-.3 54.8 0 59 5.5 69.8 5.4 11 11.6 15.1 29.4 19.5 5.7 1.4 11.3 3.2 12.6 4 3.2 2.1 3 6-.4 8.2-2.3 1.5-4.9 1.8-16.3 1.7-7.4-.1-19.8-.9-27.5-1.9-15.2-1.9-21.6-1.8-57.5 1.1-28.7 2.4-39.5 1.1-38.8-4.5.4-3.6 5.5-6.6 14.5-8.6 17.9-3.8 27.2-8.4 32.5-16 5.8-8.3 5.8-7.4 5.8-130 0-106.9-.5-129.2-3-138.4-1.4-5.3-6-10.5-11-12.5-2.2-.8-8.9-2.4-15.1-3.5-11.5-2.1-14.8-3.5-17.5-7.5-2.1-3.4-.5-6.2 4.4-7.6 2.2-.6 18.6-1 40.7-1.1 20.4-.1 40.2-.5 44-.9 3.9-.4 10.8-.6 15.5-.3 4.7.2 20 .8 34 1.3zm178.5 10.4c9.3 1.4 37 7.7 45.5 10.2 5.6 1.7 9.5 5.6 10.9 11.2 1.1 4.2 3.7 31.1 4.7 48.3.6 11 .5 11.8-1.5 13.8-2.5 2.5-8.2 2.8-10.4.7-.8-.8-3.3-7.3-5.6-14.4-6-19-11.6-29.6-19.6-37.1-20.6-19.2-65.2-26.5-100.4-16.5-9.9 2.8-39.2 16.9-51 24.4-25 16.1-45.9 55.7-48.8 92.7l-.6 8.6-15.1-.6c-18.7-.7-19.6-1-19.6-5.1.1-8.3 7.2-32.1 13.1-43.9 14.6-28.8 38.6-53.7 67.7-70.1 18.9-10.7 46.3-20.1 65.9-22.5 4.8-.6 10.2-1.3 11.8-1.5 6.3-.9 44.4.4 53 1.8zM286.7 366.6c16.9 3.7 21.3 5.2 21.3 7.2 0 3.7 8.2 25.8 13.4 36.2 13.5 27 21.5 35.5 50.1 53 16.5 10.1 28.2 15.5 40 18.6 8.8 2.4 12 2.7 26 2.7 18.1.1 27.2-1.5 39.4-6.5 16.3-6.8 33-21.7 45-40 3.3-5.1 7.2-10.9 8.5-13 4.1-6 11.7-6.1 13.2-.1 1.1 4.2-1.4 16.4-6.3 31.8-5.2 16.2-8.3 22.8-11.8 25.1-4.1 2.7-23.9 9.2-34.3 11.3-12 2.5-32.5 4.8-49.7 5.6-43.9 2.3-86.2-11.6-120.9-39.5-18.9-15.3-36.9-41.1-45.4-65-2.4-7-7.2-26.9-7.2-30.2 0-1 3.2-.5 18.7 2.8zM533.1 502c2.7 1.5 2.6 7.9-.3 11.5-2.9 3.7-19.1 11.3-26.5 12.5-8.9 1.5-28.9 1.2-39.4-.6-5.2-.9-12.8-2.9-16.9-4.5-7.5-2.8-16-8.2-16-10 0-.5 4.3-.9 9.5-.9 12.3 0 35.2-2.5 48-5.2 15.8-3.4 37.7-4.8 41.6-2.8z"/></svg>