<?xml version="1.0" encoding="UTF-8" standalone="no"?>
<svg
   xmlns:dc="http://purl.org/dc/elements/1.1/"
   xmlns:cc="http://creativecommons.org/ns#"
   xmlns:rdf="http://www.w3.org/1999/02/22-rdf-syntax-ns#"
   xmlns:svg="http://www.w3.org/2000/svg"
   xmlns="http://www.w3.org/2000/svg"
   xmlns:xlink="http://www.w3.org/1999/xlink"
   width="166.6875mm"
   height="166.6875mm"
   viewBox="0 0 166.6875 166.6875"
   version="1.1"
   id="svg329">
  <defs
     id="defs323">
    <linearGradient
       xlink:href="#linearGradient5022"
       id="linearGradient5094-1-8-2"
       x1="855.66357"
       y1="-2.6226044e-05"
       x2="994.37701"
       y2="132.29166"
       gradientUnits="userSpaceOnUse"
       gradientTransform="matrix(1.125,0,0,1.125,-1042.7361,-98.110969)" />
    <linearGradient
       id="linearGradient5022">
      <stop
         style="stop-color:#ffffff;stop-opacity:1;"
         offset="0"
         id="stop5039" />
      <stop
         style="stop-color:#ffffff;stop-opacity:0;"
         offset="1"
         id="stop5041" />
    </linearGradient>
  </defs>
  <metadata
     id="metadata326">
    <rdf:RDF>
      <cc:Work
         rdf:about="">
        <dc:format>image/svg+xml</dc:format>
        <dc:type
           rdf:resource="http://purl.org/dc/dcmitype/StillImage" />
        <dc:title></dc:title>
      </cc:Work>
    </rdf:RDF>
  </metadata>
  <g
     id="layer1"
     transform="translate(14.62976,32.626445)">
    <path
       id="rect2670-7-6-9-2-1"
       style="fill:#084d6e;fill-opacity:1;stroke-width:6.47811"
       d="M 500.00195,190.625 A 309.375,309.375 0 0 0 190.62695,500 309.375,309.375 0 0 0 500.00195,809.375 309.375,309.375 0 0 0 809.37695,500 309.375,309.375 0 0 0 500.00195,190.625 Z"
       transform="matrix(0.26458333,0,0,0.26458333,-63.578003,-81.574448)" />
    <g
       id="g4815-8-9"
       transform="matrix(2.3560044,0,0,2.3560044,-919.96978,-2026.8677)">
      <path
         id="path1068-2-5-7"
         style="font-style:normal;font-variant:normal;font-weight:normal;font-stretch:normal;font-size:50.8px;line-height:1.25;font-family:'EB Garamond';-inkscape-font-specification:'EB Garamond';fill:#ffffff;stroke-width:0.264583"
         d="m 410.77638,863.88674 c -0.1308,-0.003 -0.2395,0 -0.3199,0.004 -0.6096,0.0339 -1.1684,0.0847 -1.6764,0.15245 -0.508,0.0339 -1.084,0.0507 -1.7275,0.0507 h -1.6253 c -0.4064,-0.0339 -0.8467,-0.0507 -1.3208,-0.0507 h -2.0319 c -0.4403,0 -0.7962,0.0509 -1.0672,0.15246 -0.2709,0.0677 -0.4061,0.20296 -0.4061,0.40616 0,0.23707 0.1352,0.45723 0.4061,0.66043 0.271,0.16933 0.6945,0.28784 1.2703,0.35554 0.9821,0.1016 1.6761,0.28821 2.0825,0.55912 0.4403,0.27093 0.7113,0.74483 0.8129,1.42214 0.1352,0.64349 0.2031,1.60903 0.2031,2.89597 v 21.64053 c 0,1.25307 -0.3046,2.15045 -0.9142,2.69235 -0.5757,0.54186 -1.5072,0.93133 -2.7941,1.1684 -1.1176,0.2032 -1.6764,0.50826 -1.6764,0.91466 0,0.2032 0.1358,0.33848 0.4067,0.40619 0.2709,0.1016 0.6263,0.15243 1.0666,0.15243 0.9144,0 1.6933,-0.0341 2.3368,-0.10179 0.6773,-0.0677 1.3378,-0.11856 1.9813,-0.15245 0.6773,-0.0677 1.4394,-0.10128 2.2861,-0.10128 0.6435,0 1.1515,0.0336 1.524,0.10128 0.4064,0.0339 0.8467,0.0847 1.3208,0.15245 0.508,0.0677 1.2188,0.10179 2.1332,0.10179 0.4403,0 0.7963,-0.0508 1.0671,-0.15243 0.2709,-0.0677 0.4062,-0.20299 0.4062,-0.40619 0,-0.23706 -0.1353,-0.42367 -0.4062,-0.55914 -0.2708,-0.13547 -0.6945,-0.25392 -1.2702,-0.35552 -1.2531,-0.23707 -2.1337,-0.74502 -2.6417,-1.52395 -0.508,-0.8128 -0.7617,-1.76107 -0.7617,-2.84477 v -8.94056 c 0,-0.3048 0.051,-0.55902 0.1525,-0.76222 0.1071,-0.16068 0.3841,-0.24286 0.576,-0.2553 -0.011,-0.2532 0.1041,-0.50321 0.1041,-0.76031 0,-0.23733 -0.095,-0.41823 -0.089,-0.65254 -0.3993,-0.20659 -0.7439,-0.75522 -0.7439,-1.53217 v -5.1816 c 0.034,-1.45626 0.067,-2.60789 0.1013,-3.45458 0.068,-1.76107 0.271,-2.98032 0.6097,-3.65765 0.3387,-0.7112 2.6975,-0.87334 3.7812,-0.87334 2.0295,0 3.5678,0.32287 4.6168,0.96636 0.8736,-0.52186 1.7946,-0.97369 2.7574,-1.36064 -1.7694,-0.75203 -4.0228,-1.12964 -6.7644,-1.12964 -0.8593,0 -2.8507,-0.13515 -3.7662,-0.14626 z m 14.0668,4.1207 c -0.3713,0.13009 -0.7359,0.28194 -1.0935,0.45783 0,10e-4 -0.01,0.003 -0.01,0.004 -0.8367,0.40245 -1.8562,0.90368 -2.7445,1.42523 0.2691,1.00888 0.4051,2.10235 0.4051,3.28247 0,1.28693 -0.3218,2.50619 -0.9653,3.65765 -0.6096,1.1515 -1.4902,2.08296 -2.6417,2.79416 -1.1176,0.7112 -2.4553,1.06659 -4.0132,1.06659 -0.8332,0 -3.0732,-0.26876 -3.5961,-0.43873 l -0.015,1.41285 h 0.033 c 0.4741,0.0339 1.067,0.13557 1.7782,0.3049 0.7451,0.13547 3.1378,0.58296 3.8829,0.95549 0.9483,0.47414 1.6764,1.13462 2.1844,1.98128 1.1853,1.89654 2.3777,3.45443 3.1905,4.67363 0.8331,1.19962 1.4303,2.26764 2.1591,3.20495 0.1666,0.0984 0.3457,0.20489 0.5028,0.29818 v 0.003 c 1.3936,0.78325 2.9144,1.17408 4.6405,1.17408 0.4421,0 0.8579,-0.0262 1.2568,-0.0698 -1.3504,-1.38245 -2.811,-2.99556 -3.6215,-3.94911 -1.1515,-1.35467 -2.2188,-2.74323 -3.2008,-4.16563 -0.9484,-1.4224 -1.9474,-2.92944 -2.9973,-4.52117 -0.1015,-0.16933 -0.1691,-0.30456 -0.2031,-0.40616 0,-0.13549 0.068,-0.22037 0.2031,-0.25427 0.9483,-0.47413 1.8798,-1.08376 2.7942,-1.82882 0.9144,-0.74507 1.6765,-1.65926 2.2861,-2.74299 0.6096,-1.1176 0.9142,-2.43853 0.9142,-3.96253 0,-1.71834 -0.3771,-3.17013 -1.1292,-4.35684 z m 12.7729,29.06694 c -0.8027,0 -1.7174,0.12094 -2.5105,0.14832 -0.768,0.20286 -1.5924,0.36637 -2.4804,0.48885 -1.5587,0.2191 -3.0909,0.33075 -4.5972,0.33901 0.3232,0.29186 0.6157,0.53231 0.8191,0.64854 0.7112,0.4064 1.4901,0.67739 2.3368,0.81286 0.8467,0.1693 1.744,0.25373 2.6923,0.25373 0.4404,0 0.9823,-0.0508 1.6258,-0.15245 0.6435,-0.0677 1.6061,-0.59153 2.1141,-0.86246 0.508,-0.23707 0.7622,-0.60976 0.7622,-1.11776 0,-0.37254 -0.2542,-0.55864 -0.7622,-0.55864 z" />
      <path
         id="path1070-0-4-3"
         style="font-style:normal;font-variant:normal;font-weight:normal;font-stretch:normal;font-size:50.8px;line-height:1.25;font-family:'EB Garamond';-inkscape-font-specification:'EB Garamond';fill:#9bb7c4;fill-opacity:1;stroke-width:0.24336"
         d="m 429.00418,864.82157 c -2.3694,2e-5 -4.6305,0.40952 -6.7847,1.22938 -2.123,0.78838 -4.0155,1.90789 -5.6771,3.35847 -1.6616,1.45057 -2.9695,3.15362 -3.9233,5.10873 -0.7169,1.4692 -1.1644,3.03644 -1.3426,4.70151 0.2169,0.0364 0.4604,0.0761 0.7313,0.10904 0.7016,0.0852 1.4823,0.14626 1.7673,0.14626 0.3981,0 0.7696,-0.0279 1.1214,-0.078 0.019,-0.73891 0.091,-1.46701 0.2227,-2.18282 0.1538,-0.83566 0.3848,-1.65515 0.6925,-2.45927 0.3077,-0.80412 0.6729,-1.56514 1.096,-2.28254 0.4232,-0.71741 0.9037,-1.39141 1.4423,-2.0221 1.1077,-1.29291 3.3772,-2.30193 4.885,-3.0272 1.5385,-0.75684 3.1999,-1.13533 4.9847,-1.13533 1.2615,0 2.4308,0.142 3.5078,0.42579 1.1078,0.25228 2.046,0.6463 2.8153,1.18237 0.8,0.56761 1.4003,1.29313 1.8004,2.1761 0.4001,0.8514 0.7537,1.87645 1.0615,3.07474 0.092,0.34687 0.2618,0.55142 0.5079,0.61445 0.277,0.063 0.5231,0.0316 0.7385,-0.0946 0.2471,-0.15767 0.354,-0.34666 0.323,-0.5674 -0.031,-1.22984 -0.091,-2.25486 -0.1845,-3.07475 -0.092,-0.85143 -0.169,-1.63941 -0.231,-2.36471 -0.031,-0.44149 -0.1536,-0.78851 -0.369,-1.04077 -0.1847,-0.25228 -0.5078,-0.44177 -0.9694,-0.56793 -1.0461,-0.28379 -1.9694,-0.50429 -2.7694,-0.66196 -0.7693,-0.1892 -1.5695,-0.33123 -2.4003,-0.42582 -0.8308,-0.0946 -1.8464,-0.1416 -3.0463,-0.1416 z m -17.6801,18.26762 c 0.1918,1.55922 0.5892,3.02387 1.2025,4.38941 0.9231,1.95512 2.1694,3.64215 3.7388,5.06119 1.5693,1.3875 3.3542,2.46002 5.3542,3.21686 2.0001,0.75681 4.0766,1.1348 6.2306,1.1348 1.5078,0 3.0464,-0.10999 4.6158,-0.33073 1.6001,-0.22074 2.9691,-0.56774 4.1077,-1.04077 0.4923,-0.15764 0.8004,-0.29966 0.9235,-0.42579 0.1538,-0.12615 0.3384,-0.40965 0.5539,-0.85111 0.1846,-0.47302 0.3689,-1.00955 0.5535,-1.6087 0.2154,-0.63068 0.3849,-1.21369 0.508,-1.74976 0.1226,-0.56761 0.1845,-0.97764 0.1845,-1.22989 0,-0.50456 -0.2153,-0.75708 -0.646,-0.75708 -0.4,0 -0.7079,0.205 -0.9234,0.61497 -1.0154,1.8605 -2.2461,3.31102 -3.6923,4.35165 -1.4462,1.04064 -3.2772,1.56115 -5.4927,1.56115 -1.9077,0 -3.6464,-0.44151 -5.2157,-1.32445 -1.5385,-0.91451 -3.8385,-2.11304 -4.977,-3.59513 -0.5539,-0.75684 -1.0461,-1.55686 -1.4769,-2.40038 -0.4307,-0.84355 -0.8001,-1.73056 -1.1079,-2.66081 -0.1443,-0.45929 -0.2701,-0.92025 -0.3788,-1.3834 -0.025,-0.0129 -0.048,-0.0266 -0.073,-0.0393 -0.08,-0.0399 -0.9066,-0.29774 -1.6624,-0.46665 -0.7559,-0.16886 -1.5283,-0.31268 -1.8945,-0.37931 a 1.220647,1.220647 0 0 1 -0.064,-0.0134 c -0.1434,-0.0342 -0.2517,-0.0519 -0.3679,-0.0734 z" />
    </g>
    <circle
       style="fill:url(#linearGradient5094-1-8-2);fill-opacity:1;stroke:#ffffff;stroke-width:2.97656;stroke-miterlimit:4;stroke-dasharray:none;stroke-opacity:0"
       id="path5086-3-2-7"
       cx="68.713989"
       cy="50.717304"
       r="81.855469" />
  </g>
</svg>
