<svg xmlns="http://www.w3.org/2000/svg" xmlns:xlink="http://www.w3.org/1999/xlink" width="1261.788" height="226.146" viewBox="0 0 333.848 59.834"><defs><radialGradient xlink:href="#a" id="b" cx="362.969" cy="126.737" fx="362.969" fy="126.737" r="163.893" gradientTransform="matrix(.99991 0 .00001 .11056 24.827 59.654)" gradientUnits="userSpaceOnUse"/><linearGradient id="a"><stop offset="0" stop-color="#fff"/><stop offset="1" stop-color="#fff" stop-opacity="0"/></linearGradient><path id="c" d="M657.861 618.7h761.027v805.793H657.861z"/></defs><g aria-label="RICARDO CALIL" style="line-height:1.25" font-size="45.861" font-family="Amiri" fill="#fff" stroke-width=".265" font-weight="400"><path d="M14.832 3.321q1.514 0 3.119.505 1.605.504 2.935 1.467 1.376.963 2.201 2.43.826 1.422.826 3.349 0 1.605-.918 3.118-.87 1.514-2.293 2.66-1.375 1.147-2.889 1.651 1.193 1.972 2.293 3.623 1.1 1.651 2.293 3.302l2.66 3.577q.963 1.284 2.064 1.926 1.146.642 2.98.78.184.183.093.688-.092.504-.138.596-2.247 0-3.76-.137-1.468-.184-2.156-.413-.459-.184-1.284-.55-.826-.413-1.605-1.422-.275-.367-1.01-1.422-.733-1.055-1.742-2.568-1.009-1.514-2.155-3.21-1.147-1.743-2.202-3.394-.367-.55-1.376-.55H10.43v10.502q.046.688.184 1.146.092.23.734.413.642.183 1.376.275.733.046 1.008.046.138.183.138.642.046.459-.138.642-1.375-.092-2.66-.137-1.238-.092-2.568-.092-1.284 0-2.614.092-1.33.045-2.706.137Q3 32.81 3 32.351q.046-.459.183-.642.276 0 1.01-.046.733-.092 1.375-.275.688-.183.734-.413.183-.55.183-1.421.046-.872.046-1.88L6.485 8.548q0-1.009-.045-1.88 0-.917-.184-1.468-.046-.275-.734-.412-.642-.138-1.376-.184-.687-.092-.963-.092Q3.046 4.33 3 3.871q0-.458.183-.642 1.376.046 2.66.138 1.33.046 2.614.046 1.33 0 2.844-.046 1.56-.046 3.531-.046zm4.907 8.163q0-2.935-1.605-4.815-1.56-1.88-5.274-1.88-.413 0-1.284.045-.825.046-.963.367-.184.413-.23 1.422v1.972l.047 9.356h2.384q1.743 0 3.302-.78 1.605-.825 2.614-2.247 1.01-1.468 1.01-3.44zM36.295 3.413q1.33 0 2.568-.046 1.284-.092 2.66-.138.184.184.138.642 0 .459-.138.642-.275 0-1.009.092-.733.046-1.375.184-.643.137-.734.412-.138.459-.184 1.193v23.435q.046.688.184 1.146.091.23.734.413.642.183 1.375.275.734.046 1.01.046.137.183.137.642.046.459-.138.642-1.376-.092-2.66-.137-1.238-.092-2.568-.092-1.284 0-2.614.092-1.33.045-2.706.137-.183-.183-.183-.642.046-.459.183-.642.275 0 1.01-.046.733-.092 1.375-.275.688-.183.734-.413.183-.55.183-1.421.046-.872.046-1.88V8.548q0-1.009-.046-1.88 0-.917-.183-1.468-.046-.275-.734-.412-.642-.138-1.376-.184-.734-.092-1.009-.092-.137-.183-.183-.642 0-.458.183-.642 1.376.046 2.706.138 1.33.046 2.614.046zM60.326 3q2.202 0 4.586.183 2.431.184 4.908.734l.137.963q.184.918.367 2.202.183 1.238.321 2.293.183 1.009.183 1.192.046.184-.275.367-.32.183-.688.183-.32 0-.55-.137-.092-.505-.459-1.56-.32-1.054-1.238-2.2-.871-1.147-2.568-1.927-1.697-.825-4.494-.825-2.477 0-4.495 1.146-2.018 1.1-3.485 3.027-1.422 1.88-2.202 4.22-.733 2.292-.733 4.631 0 2.614.688 5.137.733 2.522 2.155 4.586 1.468 2.018 3.623 3.256 2.201 1.192 5.137 1.192 2.063 0 3.485-.642 1.468-.642 2.43-1.513 1.33-1.193 1.927-2.66.596-1.468.825-2.568.78-.092 1.422.366 0 .321-.183 1.285-.138.963-.367 2.11-.23 1.1-.505 1.971-.275.872-.504 1.1-1.835 1.01-4.174 1.514-2.339.505-5.457.505-3.302 0-6.054-1.147-2.751-1.192-4.77-3.21-1.971-2.064-3.072-4.678-1.055-2.66-1.055-5.64 0-3.165 1.1-5.917 1.147-2.797 3.165-4.953 2.018-2.155 4.77-3.348Q57.024 3 60.327 3zM77.478 26.618l.413-1.1q.459-1.147 1.192-3.073.734-1.926 1.651-4.265.964-2.385 1.927-4.861.963-2.523 1.834-4.816.917-2.293 1.605-4.035.184-.367.78-.826.642-.459.963-.459.092 0 .092.046.046 0 .137.046l9.127 23.94q1.008 2.66 1.146 2.935.23.504.871.871.688.367 1.33.55.688.138.872.138.183.23.137.734-.046.458-.091.55-1.33-.092-2.385-.137-1.055-.092-2.522-.092-1.56 0-2.615.092-1.009.045-2.568.137-.183-.183-.183-.642.046-.459.23-.642.412 0 1.283-.138.872-.183 1.193-.458.183-.184.183-.642 0-.413-.321-1.376-.275-1.009-.734-2.247-.458-1.238-.917-2.385-.459-1.192-.78-1.926l-.275-.78-.092-.092q-.091-.091-.183-.091-.688-.046-1.697-.046H86.33q-1.376 0-2.34.046-.962 0-2.476.091-.046 0-.137.092l-.092.046-.367.917q-.321.917-.826 2.202-.458 1.238-.825 2.339-.413 1.146-.55 1.926-.092.78-.092 1.238 0 .504.688.825.734.276 1.467.367.78.092.963.092.092.092.138.596.046.459-.046.688-.871-.046-1.513-.092-.596-.045-1.239-.091-.596-.046-1.605-.046t-1.697.046l-1.375.091q-.688.046-1.743.092-.092-.092-.092-.55 0-.505.092-.734.413 0 1.376-.183 1.009-.23 1.33-.688.688-.872 1.146-1.926.505-1.101.963-2.294zm8.76-18.023L82.156 19.51v.092q.046.091.092.091.871.046 2.064.092h1.972q1.054 0 1.88-.046.871-.046 1.88-.091.092 0 .092-.092l.046-.138zM114.947 3.321q1.513 0 3.118.505 1.605.504 2.935 1.467 1.376.963 2.202 2.43.825 1.422.825 3.349 0 1.605-.917 3.118-.871 1.514-2.293 2.66-1.376 1.147-2.89 1.651 1.193 1.972 2.294 3.623 1.1 1.651 2.293 3.302 1.192 1.605 2.66 3.577.963 1.284 2.064 1.926 1.146.642 2.98.78.184.183.092.688-.091.504-.137.596-2.248 0-3.76-.137-1.469-.184-2.156-.413-.459-.184-1.285-.55-.825-.413-1.605-1.422-.275-.367-1.009-1.422-.733-1.055-1.742-2.568-1.01-1.514-2.156-3.21-1.146-1.743-2.201-3.394-.367-.55-1.376-.55h-2.339v10.502q.046.688.184 1.146.091.23.733.413.642.183 1.376.275.734.046 1.01.046.137.183.137.642.046.459-.138.642-1.376-.092-2.66-.137-1.238-.092-2.568-.092-1.284 0-2.614.092-1.33.045-2.706.137-.183-.183-.183-.642.046-.459.183-.642.275 0 1.009-.046.734-.092 1.376-.275.688-.183.734-.413.183-.55.183-1.421.046-.872.046-1.88L106.6 8.548q0-1.009-.046-1.88 0-.917-.183-1.468-.046-.275-.734-.412-.642-.138-1.376-.184-.688-.092-.963-.092-.138-.183-.183-.642 0-.458.183-.642 1.376.046 2.66.138 1.33.046 2.614.046 1.33 0 2.843-.046 1.56-.046 3.532-.046zm4.907 8.163q0-2.935-1.605-4.815-1.56-1.88-5.274-1.88-.413 0-1.284.045-.826.046-.963.367-.184.413-.23 1.422v1.972l.046 9.356h2.385q1.743 0 3.302-.78 1.605-.825 2.614-2.247 1.009-1.468 1.009-3.44zM142.876 3.367q4.907 0 8.439 1.926 3.53 1.88 5.411 5.182 1.88 3.256 1.88 7.43 0 2.843-.78 5.55-.779 2.705-2.66 4.86-1.834 2.156-4.998 3.44-3.164 1.238-7.888 1.238h-11.19q-.184-.183-.184-.642.046-.459.184-.642.275 0 1.009-.046.734-.092 1.376-.275.688-.183.733-.413.184-.55.184-1.421.046-.872.046-1.88V8.548q0-1.009-.046-1.88 0-.917-.184-1.468-.045-.275-.733-.412-.642-.138-1.376-.184-.734-.092-1.01-.092-.137-.183-.183-.642 0-.458.184-.642 1.376.046 2.706.138 1.33.046 2.614.046h3.164q1.835-.046 3.302-.046zm-4.494 5.274v20.133q0 .688.046 1.376.091.642.183.78.275.366 1.33.504 1.1.137 2.339.137 3.21 0 5.87-1.375 2.706-1.376 4.357-4.174 1.651-2.843 1.651-7.2 0-3.806-1.055-6.466-1.009-2.66-2.797-4.311-1.743-1.697-3.99-2.43-2.202-.78-4.632-.78-.275 0-1.01.045-.733 0-1.375.092t-.734.321q-.137.459-.183 1.238v2.11zM177.547 3q2.981 0 5.595 1.1 2.66 1.101 4.678 3.165 2.018 2.018 3.164 4.815 1.193 2.752 1.193 6.1 0 3.164-1.193 5.916-1.146 2.706-3.164 4.816-2.018 2.063-4.678 3.256-2.614 1.146-5.595 1.146-2.935 0-5.595-1.1-2.614-1.101-4.632-3.119-1.972-2.064-3.118-4.815-1.147-2.798-1.147-6.1 0-3.164 1.147-5.916 1.146-2.752 3.118-4.815 2.018-2.11 4.632-3.257Q174.612 3 177.547 3zm-.642 1.513q-2.522 0-4.31 1.147-1.79 1.1-2.936 2.935-1.1 1.834-1.651 4.082-.504 2.247-.504 4.494 0 2.614.687 5.228.734 2.568 2.11 4.724 1.376 2.11 3.348 3.394 2.018 1.284 4.632 1.284 2.522 0 4.31-1.1 1.79-1.147 2.936-3.028 1.146-1.88 1.65-4.127.551-2.293.551-4.54 0-2.615-.734-5.183-.687-2.568-2.11-4.678-1.375-2.11-3.393-3.347-1.972-1.285-4.586-1.285zM225.013 3q2.202 0 4.586.183 2.431.184 4.908.734l.137.963q.184.918.367 2.202.183 1.238.321 2.293.184 1.009.184 1.192.045.184-.276.367-.32.183-.688.183-.32 0-.55-.137-.092-.505-.459-1.56-.32-1.054-1.238-2.2-.871-1.147-2.568-1.927-1.697-.825-4.494-.825-2.477 0-4.495 1.146-2.018 1.1-3.485 3.027-1.422 1.88-2.202 4.22-.733 2.292-.733 4.631 0 2.614.688 5.137.733 2.522 2.155 4.586 1.468 2.018 3.623 3.256 2.201 1.192 5.137 1.192 2.063 0 3.485-.642 1.468-.642 2.43-1.513 1.33-1.193 1.927-2.66.596-1.468.825-2.568.78-.092 1.422.366 0 .321-.183 1.285-.138.963-.367 2.11-.23 1.1-.505 1.971-.275.872-.504 1.1-1.835 1.01-4.174 1.514-2.339.505-5.457.505-3.302 0-6.054-1.147-2.751-1.192-4.77-3.21-1.971-2.064-3.072-4.678-1.055-2.66-1.055-5.64 0-3.165 1.1-5.917 1.147-2.797 3.165-4.953 2.018-2.155 4.77-3.348Q221.71 3 225.014 3zM242.165 26.618l.413-1.1q.459-1.147 1.192-3.073.734-1.926 1.651-4.265.964-2.385 1.927-4.861.963-2.523 1.834-4.816.917-2.293 1.605-4.035.184-.367.78-.826.642-.459.963-.459.092 0 .092.046.046 0 .137.046l9.127 23.94q1.009 2.66 1.146 2.935.23.504.871.871.688.367 1.33.55.688.138.872.138.183.23.137.734-.046.458-.091.55-1.33-.092-2.385-.137-1.055-.092-2.522-.092-1.56 0-2.615.092-1.009.045-2.568.137-.183-.183-.183-.642.046-.459.23-.642.412 0 1.283-.138.872-.183 1.193-.458.183-.184.183-.642 0-.413-.321-1.376-.275-1.009-.734-2.247-.458-1.238-.917-2.385-.459-1.192-.78-1.926l-.275-.78-.092-.092q-.091-.091-.183-.091-.688-.046-1.697-.046h-2.751q-1.376 0-2.34.046-.962 0-2.476.091-.046 0-.137.092l-.092.046-.367.917q-.321.917-.826 2.202-.458 1.238-.825 2.339-.413 1.146-.55 1.926-.092.78-.092 1.238 0 .504.688.825.734.276 1.467.367.78.092.963.092.092.092.138.596.046.459-.046.688-.871-.046-1.513-.092-.596-.045-1.239-.091-.596-.046-1.605-.046t-1.697.046l-1.375.091q-.688.046-1.743.092-.092-.092-.092-.55 0-.505.092-.734.413 0 1.376-.183 1.009-.23 1.33-.688.688-.872 1.146-1.926.505-1.101.963-2.294zm8.76-18.023l-4.082 10.915v.092q.046.091.092.091.871.046 2.064.092h1.972q1.054 0 1.88-.046.871-.046 1.88-.091.092 0 .092-.092l.046-.138zM275.231 27.673v1.376q0 .642.046 1.192.046.55.183.643.46.32 1.101.412.688.046 2.11.046h2.522q1.284 0 2.798-.275 1.559-.321 2.476-.963.826-.596 1.514-1.651.733-1.055 1.284-2.843.091-.276.642-.276.825 0 1.1.276-.642 1.834-1.421 3.898-.734 2.063-.963 3.531-3.623 0-7.2-.092-3.578-.091-8.072-.091-1.56 0-2.798.045-1.238.092-2.568.092-.183-.183-.183-.642.046-.459.183-.642.275 0 1.01-.046.733-.092 1.375-.275.688-.183.734-.413.183-.55.183-1.421.046-.872.046-1.88V8.548q0-1.009-.046-1.88 0-.917-.183-1.468-.046-.275-.734-.412-.642-.138-1.376-.184-.734-.092-1.009-.092-.137-.183-.183-.642 0-.458.183-.642 1.376.046 2.706.138 1.33.046 2.614.046 1.33 0 2.568-.046 1.284-.092 2.66-.138.184.184.138.642 0 .459-.138.642-.275 0-1.009.092-.734.046-1.376.184-.642.137-.733.412-.138.459-.184 1.193v2.155zM298.529 3.413q1.33 0 2.568-.046 1.284-.092 2.66-.138.183.184.137.642 0 .459-.137.642-.275 0-1.01.092-.733.046-1.375.184-.642.137-.734.412-.137.459-.183 1.193v23.435q.046.688.183 1.146.092.23.734.413.642.183 1.376.275.734.046 1.009.046.137.183.137.642.046.459-.137.642-1.376-.092-2.66-.137-1.238-.092-2.568-.092-1.285 0-2.615.092-1.33.045-2.705.137-.184-.183-.184-.642.046-.459.184-.642.275 0 1.009-.046.733-.092 1.375-.275.688-.183.734-.413.184-.55.184-1.421.046-.872.046-1.88V8.548q0-1.009-.046-1.88 0-.917-.184-1.468-.046-.275-.734-.412-.642-.138-1.375-.184-.734-.092-1.01-.092-.137-.183-.183-.642 0-.458.184-.642 1.375.046 2.705.138 1.33.046 2.615.046zM314.947 27.673v1.376q0 .642.046 1.192.046.55.183.643.459.32 1.1.412.689.046 2.11.046h2.523q1.284 0 2.797-.275 1.56-.321 2.477-.963.825-.596 1.513-1.651.734-1.055 1.284-2.843.092-.276.642-.276.826 0 1.101.276-.642 1.834-1.422 3.898-.733 2.063-.963 3.531-3.623 0-7.2-.092-3.577-.091-8.071-.091-1.56 0-2.798.045-1.238.092-2.568.092-.184-.183-.184-.642.046-.459.184-.642.275 0 1.009-.046.734-.092 1.376-.275.688-.183.733-.413.184-.55.184-1.421.046-.872.046-1.88V8.548q0-1.009-.046-1.88 0-.917-.184-1.468-.046-.275-.733-.412-.642-.138-1.376-.184-.734-.092-1.01-.092-.137-.183-.183-.642 0-.458.184-.642 1.376.046 2.706.138 1.33.046 2.614.046 1.33 0 2.568-.046 1.284-.092 2.66-.138.183.184.137.642 0 .459-.137.642-.275 0-1.01.092-.733.046-1.375.184-.642.137-.734.412-.137.459-.183 1.193v2.155z" style="-inkscape-font-specification:Amiri"/></g><g aria-label="&amp; ADVOGADOS ASSOCIADOS" style="line-height:1.25" font-size="17.639" font-family="Quicksand" stroke-width=".265" font-weight="400" fill="#fff"><path d="M52.553 56.834q-1.252 0-2.223-.582-.97-.582-1.517-1.5-.529-.917-.529-1.94 0-.776.3-1.5.318-.722.935-1.287.635-.582 1.605-.917l.759.758q-1.376.318-1.94 1.094-.565.776-.565 1.711 0 .794.37 1.517.37.706 1.112 1.164.74.459 1.816.459 1.147 0 1.958-.37.83-.389 1.394-1.006.564-.635.9-1.411.334-.794.493-1.605.036-.177.141-.265.124-.106.335-.106.247 0 .389.177.14.176.105.44-.158.953-.582 1.87-.423.918-1.146 1.676-.723.74-1.746 1.182-1.024.44-2.364.44zm6.262-.23q-.088 0-.177-.017l-.14-.07q-1.077-.847-2.082-1.624-.988-.793-1.976-1.71-.97-.918-2.046-2.117-.617-.706-1.111-1.376-.494-.688-.794-1.34-.3-.67-.3-1.323 0-.812.406-1.464.406-.67 1.147-1.041.74-.388 1.763-.388 1.27 0 2.1.476.828.476 1.164 1.129.017.018.052.123.036.089.036.212 0 .159-.141.3-.124.141-.353.141-.141 0-.247-.053-.088-.053-.141-.141-.353-.53-.935-.864-.564-.353-1.535-.353-1.076 0-1.64.547-.564.529-.564 1.376 0 .546.3 1.164.3.6.758 1.217.476.617.988 1.2.705.793 1.481 1.551.794.741 1.553 1.394.776.653 1.464 1.182l1.217.935q.123.088.176.194.053.105.053.247 0 .14-.124.317-.123.176-.352.176zM70.333 45.668l-4.286 10.654q-.071.177-.194.265-.124.088-.283.088-.247 0-.37-.123-.124-.142-.141-.336-.018-.088.017-.211l4.657-11.395q.088-.194.212-.265.14-.088.317-.088t.3.106q.141.088.212.247l4.639 11.342q.035.106.035.212 0 .246-.159.388-.158.123-.37.123-.176 0-.318-.088-.123-.106-.194-.265l-4.392-10.724zm-3.263 7.426l.44-1.04h5.469l.211 1.04zM82.645 44.31q1.305 0 2.275.494.988.494 1.623 1.376.635.864.935 1.975.317 1.112.317 2.329 0 1.693-.564 3.104-.547 1.394-1.693 2.24-1.13.83-2.893.83h-4.498q-.212 0-.37-.16-.16-.158-.16-.37V44.84q0-.211.16-.37.158-.159.37-.159zm-.177 11.307q1.5 0 2.417-.688.917-.688 1.34-1.852.441-1.182.441-2.593 0-1.023-.246-1.94-.23-.935-.741-1.64-.494-.724-1.306-1.13-.793-.423-1.905-.423h-3.863l.124-.159v10.601l-.106-.176zM99.031 44.293q.247 0 .388.14.16.142.16.353 0 .124-.054.265l-4.71 11.254q-.088.176-.229.264-.14.088-.282.088-.159 0-.3-.088-.14-.088-.194-.247l-4.692-11.236q-.017-.053-.035-.123-.018-.07-.018-.159 0-.23.16-.37.176-.141.352-.141.37 0 .53.388l4.409 10.548h-.318l4.34-10.584q.176-.352.493-.352zM112.648 50.484q0 1.393-.44 2.557-.424 1.147-1.218 2.011-.793.847-1.887 1.323-1.076.459-2.364.459-1.287 0-2.38-.459-1.077-.476-1.87-1.323-.794-.864-1.235-2.01-.424-1.165-.424-2.558 0-1.394.424-2.54.44-1.164 1.234-2.011.794-.864 1.87-1.323 1.094-.476 2.381-.476 1.288 0 2.364.476 1.094.459 1.887 1.323.794.847 1.218 2.01.44 1.147.44 2.54zm-1.128 0q0-1.57-.618-2.752-.6-1.2-1.675-1.87-1.076-.67-2.488-.67-1.393 0-2.487.67-1.076.67-1.693 1.87-.6 1.182-.6 2.752 0 1.57.6 2.77.617 1.18 1.693 1.851 1.094.67 2.487.67 1.412 0 2.488-.67t1.675-1.852q.618-1.2.618-2.77zM120.692 56.834q-1.358 0-2.523-.476-1.164-.477-2.028-1.323-.847-.865-1.323-2.029t-.476-2.522q0-1.358.476-2.523.476-1.164 1.323-2.01.864-.865 2.028-1.341 1.165-.476 2.523-.476.935 0 1.799.23.882.21 1.57.652.123.088.176.211.07.106.07.23 0 .247-.158.405-.159.141-.335.141-.088 0-.176-.017l-.142-.07q-.6-.336-1.305-.53t-1.5-.194q-1.516 0-2.698.688t-1.852 1.887q-.67 1.2-.67 2.717 0 1.517.67 2.716.67 1.2 1.852 1.888 1.182.687 2.699.687.794 0 1.587-.229.812-.23 1.394-.617l-.088.37v-4.057l.264.247h-3.051q-.23 0-.388-.159-.16-.158-.16-.37 0-.247.16-.388.158-.141.388-.141h3.369q.229 0 .37.159.159.14.159.37v4.251q0 .141-.07.265-.071.123-.195.211-.776.53-1.746.847-.952.3-1.993.3zM131.54 45.668l-4.287 10.654q-.07.177-.194.265-.123.088-.282.088-.247 0-.37-.123-.124-.142-.141-.336-.018-.088.017-.211l4.657-11.395q.088-.194.212-.265.14-.088.317-.088t.3.106q.141.088.212.247l4.639 11.342q.035.106.035.212 0 .246-.159.388-.158.123-.37.123-.177 0-.318-.088-.123-.106-.194-.265l-4.392-10.724zm-3.263 7.426l.44-1.04h5.469l.211 1.04zM143.852 44.31q1.305 0 2.275.494.988.494 1.623 1.376.635.864.935 1.975.317 1.112.317 2.329 0 1.693-.564 3.104-.547 1.394-1.694 2.24-1.128.83-2.892.83h-4.498q-.212 0-.37-.16-.16-.158-.16-.37V44.84q0-.211.16-.37.158-.159.37-.159zm-.177 11.307q1.5 0 2.417-.688.917-.688 1.34-1.852.441-1.182.441-2.593 0-1.023-.247-1.94-.229-.935-.74-1.64-.494-.724-1.306-1.13-.793-.423-1.905-.423h-3.863l.124-.159v10.601l-.106-.176zM162.514 50.484q0 1.393-.441 2.557-.424 1.147-1.217 2.011-.794.847-1.888 1.323-1.076.459-2.363.459-1.288 0-2.382-.459-1.076-.476-1.87-1.323-.793-.864-1.234-2.01-.423-1.165-.423-2.558 0-1.394.423-2.54.44-1.164 1.235-2.011.793-.864 1.87-1.323 1.093-.476 2.38-.476 1.288 0 2.364.476 1.094.459 1.888 1.323.793.847 1.217 2.01.44 1.147.44 2.54zm-1.13 0q0-1.57-.617-2.752-.6-1.2-1.675-1.87-1.076-.67-2.487-.67-1.394 0-2.487.67-1.076.67-1.694 1.87-.6 1.182-.6 2.752 0 1.57.6 2.77.618 1.18 1.694 1.851 1.093.67 2.487.67 1.41 0 2.487-.67 1.076-.67 1.675-1.852.618-1.2.618-2.77zM168.423 56.834q-1.34.017-2.329-.424-.987-.44-1.887-1.322-.088-.071-.159-.177-.053-.106-.053-.247 0-.211.159-.388.176-.176.388-.176.212 0 .388.176.688.741 1.552 1.129.882.388 1.888.388.846 0 1.499-.264.67-.265 1.058-.759t.388-1.146q0-.812-.44-1.306-.442-.511-1.165-.829-.723-.335-1.605-.6-.723-.211-1.376-.476-.652-.282-1.164-.67-.511-.406-.794-.988-.282-.582-.282-1.41 0-.936.494-1.659t1.394-1.129q.917-.423 2.116-.423 1.04 0 1.993.353.97.352 1.535 1.04.265.282.265.512 0 .176-.177.353-.176.176-.388.176-.176 0-.3-.124-.3-.37-.758-.652-.459-.3-1.023-.459-.547-.159-1.147-.159-.829 0-1.5.265-.652.247-1.04.723-.37.476-.37 1.147 0 .74.423 1.217.423.476 1.111.794.688.3 1.464.564.759.212 1.447.494.705.265 1.235.67.546.406.846 1.023.318.618.318 1.553 0 .9-.512 1.622-.511.723-1.411 1.147-.882.423-2.081.44zM183.874 45.668l-4.286 10.654q-.07.177-.194.265-.123.088-.282.088-.247 0-.37-.123-.124-.142-.142-.336-.017-.088.018-.211l4.657-11.395q.088-.194.211-.265.141-.088.318-.088.176 0 .3.106.14.088.211.247l4.64 11.342q.035.106.035.212 0 .246-.16.388-.158.123-.37.123-.176 0-.317-.088-.124-.106-.194-.265l-4.392-10.724zm-3.263 7.426l.441-1.04h5.468l.212 1.04zM194.563 56.834q-1.34.017-2.328-.424-.988-.44-1.887-1.322-.088-.071-.159-.177-.053-.106-.053-.247 0-.211.159-.388.176-.176.388-.176.212 0 .388.176.688.741 1.552 1.129.882.388 1.888.388.846 0 1.499-.264.67-.265 1.058-.759t.388-1.146q0-.812-.44-1.306-.442-.511-1.165-.829-.723-.335-1.605-.6-.723-.211-1.376-.476-.653-.282-1.164-.67-.512-.406-.794-.988-.282-.582-.282-1.41 0-.936.494-1.659t1.393-1.129q.918-.423 2.117-.423 1.04 0 1.993.353.97.352 1.535 1.04.264.282.264.512 0 .176-.176.353-.176.176-.388.176-.176 0-.3-.124-.3-.37-.758-.652-.459-.3-1.023-.459-.547-.159-1.147-.159-.829 0-1.5.265-.652.247-1.04.723-.37.476-.37 1.147 0 .74.423 1.217.423.476 1.111.794.688.3 1.464.564.759.212 1.447.494.705.265 1.234.67.547.406.847 1.023.317.618.317 1.553 0 .9-.511 1.622-.512.723-1.411 1.147-.882.423-2.082.44zM204.476 56.834q-1.34.017-2.328-.424-.988-.44-1.887-1.322-.088-.071-.159-.177-.053-.106-.053-.247 0-.211.159-.388.176-.176.388-.176.212 0 .388.176.688.741 1.552 1.129.882.388 1.888.388.846 0 1.499-.264.67-.265 1.058-.759t.388-1.146q0-.812-.44-1.306-.442-.511-1.165-.829-.723-.335-1.605-.6-.723-.211-1.376-.476-.652-.282-1.164-.67-.512-.406-.794-.988-.282-.582-.282-1.41 0-.936.494-1.659t1.393-1.129q.918-.423 2.117-.423 1.04 0 1.993.353.97.352 1.535 1.04.264.282.264.512 0 .176-.176.353-.176.176-.388.176-.176 0-.3-.124-.3-.37-.758-.652-.459-.3-1.023-.459-.547-.159-1.147-.159-.829 0-1.5.265-.652.247-1.04.723-.37.476-.37 1.147 0 .74.423 1.217.423.476 1.111.794.688.3 1.464.564.759.212 1.447.494.705.265 1.234.67.547.406.847 1.023.318.618.318 1.553 0 .9-.512 1.622-.512.723-1.411 1.147-.882.423-2.082.44zM221.992 50.484q0 1.393-.441 2.557-.423 1.147-1.217 2.011-.794.847-1.888 1.323-1.076.459-2.363.459-1.288 0-2.381-.459-1.076-.476-1.87-1.323-.794-.864-1.235-2.01-.423-1.165-.423-2.558 0-1.394.423-2.54.441-1.164 1.235-2.011.794-.864 1.87-1.323 1.093-.476 2.38-.476 1.288 0 2.364.476 1.094.459 1.888 1.323.794.847 1.217 2.01.44 1.147.44 2.54zm-1.129 0q0-1.57-.617-2.752-.6-1.2-1.676-1.87-1.076-.67-2.487-.67-1.394 0-2.487.67-1.076.67-1.694 1.87-.6 1.182-.6 2.752 0 1.57.6 2.77.618 1.18 1.694 1.851 1.093.67 2.487.67 1.41 0 2.487-.67 1.076-.67 1.676-1.852.617-1.2.617-2.77zM233.51 45.227q.212.141.247.37.035.212-.106.424-.123.159-.317.177-.194.017-.37-.071-.671-.441-1.447-.688-.759-.247-1.64-.247-1.077 0-2.011.388-.918.37-1.606 1.094-.687.705-1.076 1.675-.37.97-.37 2.135 0 1.2.388 2.187.388.97 1.076 1.676.706.705 1.623 1.076.917.37 1.975.37.865 0 1.623-.247.776-.247 1.447-.67.176-.106.37-.07.212.017.335.193.159.194.106.424-.035.211-.23.335-.44.282-1.04.529-.6.247-1.27.388-.67.159-1.34.159-1.27 0-2.382-.459-1.111-.458-1.975-1.287-.865-.847-1.359-2.011-.476-1.164-.476-2.593 0-1.376.476-2.523.477-1.164 1.323-2.01.847-.847 1.976-1.323 1.129-.477 2.416-.477 1.006 0 1.94.283.936.282 1.694.793zM237.126 56.11q-.018.23-.194.389-.159.158-.37.158-.247 0-.406-.158-.141-.16-.141-.388V44.857q0-.23.159-.388.158-.159.405-.159.212 0 .37.159.177.159.177.388zM244.552 45.668l-4.286 10.654q-.07.177-.194.265-.124.088-.283.088-.246 0-.37-.123-.123-.142-.141-.336-.018-.088.018-.211l4.656-11.395q.088-.194.212-.265.141-.088.317-.088.177 0 .3.106.141.088.212.247l4.639 11.342q.035.106.035.212 0 .246-.159.388-.158.123-.37.123-.176 0-.317-.088-.124-.106-.194-.265l-4.393-10.724zm-3.263 7.426l.44-1.04h5.469l.211 1.04zM256.864 44.31q1.305 0 2.275.494.988.494 1.623 1.376.635.864.935 1.975.317 1.112.317 2.329 0 1.693-.564 3.104-.547 1.394-1.693 2.24-1.13.83-2.893.83h-4.498q-.212 0-.37-.16-.16-.158-.16-.37V44.84q0-.211.16-.37.158-.159.37-.159zm-.176 11.307q1.499 0 2.416-.688.917-.688 1.34-1.852.442-1.182.442-2.593 0-1.023-.247-1.94-.23-.935-.741-1.64-.494-.724-1.305-1.13-.794-.423-1.905-.423h-3.863l.123-.159v10.601l-.106-.176zM275.526 50.484q0 1.393-.441 2.557-.423 1.147-1.217 2.011-.794.847-1.888 1.323-1.076.459-2.363.459-1.288 0-2.381-.459-1.076-.476-1.87-1.323-.794-.864-1.235-2.01-.423-1.165-.423-2.558 0-1.394.423-2.54.441-1.164 1.235-2.011.794-.864 1.87-1.323 1.093-.476 2.38-.476 1.288 0 2.364.476 1.094.459 1.888 1.323.794.847 1.217 2.01.44 1.147.44 2.54zm-1.129 0q0-1.57-.617-2.752-.6-1.2-1.676-1.87-1.076-.67-2.487-.67-1.394 0-2.487.67-1.076.67-1.694 1.87-.6 1.182-.6 2.752 0 1.57.6 2.77.618 1.18 1.694 1.851 1.093.67 2.487.67 1.41 0 2.487-.67 1.076-.67 1.676-1.852.617-1.2.617-2.77zM281.435 56.834q-1.34.017-2.328-.424-.988-.44-1.888-1.322-.088-.071-.159-.177-.052-.106-.052-.247 0-.211.158-.388.177-.176.388-.176.212 0 .388.176.688.741 1.553 1.129.882.388 1.887.388.847 0 1.5-.264.67-.265 1.058-.759t.388-1.146q0-.812-.441-1.306-.441-.511-1.164-.829-.724-.335-1.606-.6-.723-.211-1.375-.476-.653-.282-1.165-.67-.511-.406-.793-.988-.283-.582-.283-1.41 0-.936.494-1.659t1.394-1.129q.917-.423 2.116-.423 1.041 0 1.994.353.97.352 1.534 1.04.265.282.265.512 0 .176-.177.353-.176.176-.388.176-.176 0-.3-.124-.3-.37-.758-.652-.459-.3-1.023-.459-.547-.159-1.147-.159-.829 0-1.499.265-.653.247-1.04.723-.371.476-.371 1.147 0 .74.423 1.217.424.476 1.112.794.688.3 1.464.564.758.212 1.446.494.706.265 1.235.67.547.406.846 1.023.318.618.318 1.553 0 .9-.512 1.622-.511.723-1.41 1.147-.883.423-2.082.44z" style="-inkscape-font-specification:Quicksand"/></g><path d="M551.644 73.666a163.878 1.019 0 01-163.878 1.02 163.878 1.019 0 01-163.879-1.02 163.878 1.019 0 01163.879-1.019 163.878 1.019 0 01163.878 1.02z" fill="url(#b)" transform="translate(-220.796 -34.39)"/></svg>